<svg width="32" height="32" viewBox="0 0 32 32" fill="none" xmlns="http://www.w3.org/2000/svg">
<path d="M16.0261 3.88C11.6127 3.88 8.02605 7.46667 8.02605 11.88V15.7333C8.02605 16.5467 7.67938 17.7867 7.26605 18.48L5.73272 21.0267C4.78605 22.6 5.43938 24.3467 7.17272 24.9333C12.9194 26.8533 19.1194 26.8533 24.866 24.9333C26.4794 24.4 27.186 22.4933 26.306 21.0267L24.7727 18.48C24.3727 17.7867 24.0261 16.5467 24.0261 15.7333V11.88C24.0261 7.48001 20.4261 3.88 16.0261 3.88Z" stroke="#051C3A" stroke-width="1.5" stroke-miterlimit="10" stroke-linecap="round"/>
<path d="M18.4928 4.26667C18.0794 4.14667 17.6528 4.05334 17.2128 4C15.9328 3.84 14.7061 3.93334 13.5594 4.26667C13.9461 3.28 14.9061 2.58667 16.0261 2.58667C17.1461 2.58667 18.1061 3.28 18.4928 4.26667Z" stroke="#051C3A" stroke-width="1.5" stroke-miterlimit="10" stroke-linecap="round" stroke-linejoin="round"/>
<path d="M20.026 25.4133C20.026 27.6133 18.226 29.4133 16.026 29.4133C14.9327 29.4133 13.9193 28.96 13.1993 28.24C12.4793 27.52 12.026 26.5067 12.026 25.4133" stroke="#051C3A" stroke-width="1.5" stroke-miterlimit="10"/>
</svg>
