<svg width="506" height="29" viewBox="0 0 506 29" fill="none" xmlns="http://www.w3.org/2000/svg">
<g filter="url(#filter0_d_1387_9755)">
<rect x="153.434" y="4" width="348.523" height="3" fill="#6E737F"/>
<rect x="4.93292" y="4" width="152.542" height="3" fill="#1164D3"/>
<ellipse cx="151.447" cy="5" rx="4.59626" ry="5" fill="#1164D3"/>
</g>
<path d="M5.55292 20.31C5.55292 19.1633 5.73959 18.27 6.11292 17.63C6.48626 16.9833 7.13959 16.66 8.07292 16.66C8.99959 16.66 9.64959 16.9833 10.0229 17.63C10.3963 18.27 10.5829 19.1633 10.5829 20.31C10.5829 21.4767 10.3963 22.3833 10.0229 23.03C9.64959 23.6767 8.99959 24 8.07292 24C7.13959 24 6.48626 23.6767 6.11292 23.03C5.73959 22.3833 5.55292 21.4767 5.55292 20.31ZM9.68292 20.31C9.68292 19.73 9.64292 19.24 9.56292 18.84C9.48959 18.4333 9.33292 18.1067 9.09292 17.86C8.85959 17.6133 8.51959 17.49 8.07292 17.49C7.61959 17.49 7.27292 17.6133 7.03292 17.86C6.79959 18.1067 6.64292 18.4333 6.56292 18.84C6.48959 19.24 6.45292 19.73 6.45292 20.31C6.45292 20.91 6.48959 21.4133 6.56292 21.82C6.64292 22.2267 6.79959 22.5533 7.03292 22.8C7.27292 23.0467 7.61959 23.17 8.07292 23.17C8.51959 23.17 8.85959 23.0467 9.09292 22.8C9.33292 22.5533 9.48959 22.2267 9.56292 21.82C9.64292 21.4133 9.68292 20.91 9.68292 20.31ZM11.8322 20.31C11.8322 19.1633 12.0189 18.27 12.3922 17.63C12.7656 16.9833 13.4189 16.66 14.3522 16.66C15.2789 16.66 15.9289 16.9833 16.3022 17.63C16.6756 18.27 16.8622 19.1633 16.8622 20.31C16.8622 21.4767 16.6756 22.3833 16.3022 23.03C15.9289 23.6767 15.2789 24 14.3522 24C13.4189 24 12.7656 23.6767 12.3922 23.03C12.0189 22.3833 11.8322 21.4767 11.8322 20.31ZM15.9622 20.31C15.9622 19.73 15.9222 19.24 15.8422 18.84C15.7689 18.4333 15.6122 18.1067 15.3722 17.86C15.1389 17.6133 14.7989 17.49 14.3522 17.49C13.8989 17.49 13.5522 17.6133 13.3122 17.86C13.0789 18.1067 12.9222 18.4333 12.8422 18.84C12.7689 19.24 12.7322 19.73 12.7322 20.31C12.7322 20.91 12.7689 21.4133 12.8422 21.82C12.9222 22.2267 13.0789 22.5533 13.3122 22.8C13.5522 23.0467 13.8989 23.17 14.3522 23.17C14.7989 23.17 15.1389 23.0467 15.3722 22.8C15.6122 22.5533 15.7689 22.2267 15.8422 21.82C15.9222 21.4133 15.9622 20.91 15.9622 20.31ZM18.5515 24.06C18.3782 24.06 18.2315 24 18.1115 23.88C17.9915 23.76 17.9315 23.6133 17.9315 23.44C17.9315 23.2667 17.9915 23.12 18.1115 23C18.2315 22.88 18.3782 22.82 18.5515 22.82C18.7182 22.82 18.8582 22.88 18.9715 23C19.0915 23.12 19.1515 23.2667 19.1515 23.44C19.1515 23.6133 19.0915 23.76 18.9715 23.88C18.8582 24 18.7182 24.06 18.5515 24.06ZM24.8211 17.56H21.3111V19.84C21.4645 19.6267 21.6911 19.4533 21.9911 19.32C22.2911 19.18 22.6145 19.11 22.9611 19.11C23.5145 19.11 23.9645 19.2267 24.3111 19.46C24.6578 19.6867 24.9045 19.9833 25.0511 20.35C25.2045 20.71 25.2811 21.0933 25.2811 21.5C25.2811 21.98 25.1911 22.41 25.0111 22.79C24.8311 23.17 24.5545 23.47 24.1811 23.69C23.8145 23.91 23.3578 24.02 22.8111 24.02C22.1111 24.02 21.5445 23.84 21.1111 23.48C20.6778 23.12 20.4145 22.64 20.3211 22.04H21.2111C21.2978 22.42 21.4811 22.7167 21.7611 22.93C22.0411 23.1433 22.3945 23.25 22.8211 23.25C23.3478 23.25 23.7445 23.0933 24.0111 22.78C24.2778 22.46 24.4111 22.04 24.4111 21.52C24.4111 21 24.2778 20.6 24.0111 20.32C23.7445 20.0333 23.3511 19.89 22.8311 19.89C22.4778 19.89 22.1678 19.9767 21.9011 20.15C21.6411 20.3167 21.4511 20.5467 21.3311 20.84H20.4711V16.76H24.8211V17.56ZM26.4904 20.31C26.4904 19.1633 26.6771 18.27 27.0504 17.63C27.4238 16.9833 28.0771 16.66 29.0104 16.66C29.9371 16.66 30.5871 16.9833 30.9604 17.63C31.3338 18.27 31.5204 19.1633 31.5204 20.31C31.5204 21.4767 31.3338 22.3833 30.9604 23.03C30.5871 23.6767 29.9371 24 29.0104 24C28.0771 24 27.4238 23.6767 27.0504 23.03C26.6771 22.3833 26.4904 21.4767 26.4904 20.31ZM30.6204 20.31C30.6204 19.73 30.5804 19.24 30.5004 18.84C30.4271 18.4333 30.2704 18.1067 30.0304 17.86C29.7971 17.6133 29.4571 17.49 29.0104 17.49C28.5571 17.49 28.2104 17.6133 27.9704 17.86C27.7371 18.1067 27.5804 18.4333 27.5004 18.84C27.4271 19.24 27.3904 19.73 27.3904 20.31C27.3904 20.91 27.4271 21.4133 27.5004 21.82C27.5804 22.2267 27.7371 22.5533 27.9704 22.8C28.2104 23.0467 28.5571 23.17 29.0104 23.17C29.4571 23.17 29.7971 23.0467 30.0304 22.8C30.2704 22.5533 30.4271 22.2267 30.5004 21.82C30.5804 21.4133 30.6204 20.91 30.6204 20.31Z" fill="#6E737F"/>
<path d="M472.639 22.95V23.72H468.649V22.95H472.639ZM474.197 23.31C474.197 22.1633 474.383 21.27 474.757 20.63C475.13 19.9833 475.783 19.66 476.717 19.66C477.643 19.66 478.293 19.9833 478.667 20.63C479.04 21.27 479.227 22.1633 479.227 23.31C479.227 24.4767 479.04 25.3833 478.667 26.03C478.293 26.6767 477.643 27 476.717 27C475.783 27 475.13 26.6767 474.757 26.03C474.383 25.3833 474.197 24.4767 474.197 23.31ZM478.327 23.31C478.327 22.73 478.287 22.24 478.207 21.84C478.133 21.4333 477.977 21.1067 477.737 20.86C477.503 20.6133 477.163 20.49 476.717 20.49C476.263 20.49 475.917 20.6133 475.677 20.86C475.443 21.1067 475.287 21.4333 475.207 21.84C475.133 22.24 475.097 22.73 475.097 23.31C475.097 23.91 475.133 24.4133 475.207 24.82C475.287 25.2267 475.443 25.5533 475.677 25.8C475.917 26.0467 476.263 26.17 476.717 26.17C477.163 26.17 477.503 26.0467 477.737 25.8C477.977 25.5533 478.133 25.2267 478.207 24.82C478.287 24.4133 478.327 23.91 478.327 23.31ZM480.256 25.39V24.7L483.766 19.84H484.856V24.6H485.856V25.39H484.856V27H483.956V25.39H480.256ZM483.996 20.79L481.306 24.6H483.996V20.79ZM487.205 27.06C487.032 27.06 486.885 27 486.765 26.88C486.645 26.76 486.585 26.6133 486.585 26.44C486.585 26.2667 486.645 26.12 486.765 26C486.885 25.88 487.032 25.82 487.205 25.82C487.372 25.82 487.512 25.88 487.625 26C487.745 26.12 487.805 26.2667 487.805 26.44C487.805 26.6133 487.745 26.76 487.625 26.88C487.512 27 487.372 27.06 487.205 27.06ZM487.205 22.78C487.032 22.78 486.885 22.72 486.765 22.6C486.645 22.48 486.585 22.3333 486.585 22.16C486.585 21.9867 486.645 21.84 486.765 21.72C486.885 21.6 487.032 21.54 487.205 21.54C487.372 21.54 487.512 21.6 487.625 21.72C487.745 21.84 487.805 21.9867 487.805 22.16C487.805 22.3333 487.745 22.48 487.625 22.6C487.512 22.72 487.372 22.78 487.205 22.78ZM488.894 23.31C488.894 22.1633 489.081 21.27 489.454 20.63C489.827 19.9833 490.481 19.66 491.414 19.66C492.341 19.66 492.991 19.9833 493.364 20.63C493.737 21.27 493.924 22.1633 493.924 23.31C493.924 24.4767 493.737 25.3833 493.364 26.03C492.991 26.6767 492.341 27 491.414 27C490.481 27 489.827 26.6767 489.454 26.03C489.081 25.3833 488.894 24.4767 488.894 23.31ZM493.024 23.31C493.024 22.73 492.984 22.24 492.904 21.84C492.831 21.4333 492.674 21.1067 492.434 20.86C492.201 20.6133 491.861 20.49 491.414 20.49C490.961 20.49 490.614 20.6133 490.374 20.86C490.141 21.1067 489.984 21.4333 489.904 21.84C489.831 22.24 489.794 22.73 489.794 23.31C489.794 23.91 489.831 24.4133 489.904 24.82C489.984 25.2267 490.141 25.5533 490.374 25.8C490.614 26.0467 490.961 26.17 491.414 26.17C491.861 26.17 492.201 26.0467 492.434 25.8C492.674 25.5533 492.831 25.2267 492.904 24.82C492.984 24.4133 493.024 23.91 493.024 23.31ZM495.173 23.31C495.173 22.1633 495.36 21.27 495.733 20.63C496.107 19.9833 496.76 19.66 497.693 19.66C498.62 19.66 499.27 19.9833 499.643 20.63C500.017 21.27 500.203 22.1633 500.203 23.31C500.203 24.4767 500.017 25.3833 499.643 26.03C499.27 26.6767 498.62 27 497.693 27C496.76 27 496.107 26.6767 495.733 26.03C495.36 25.3833 495.173 24.4767 495.173 23.31ZM499.303 23.31C499.303 22.73 499.263 22.24 499.183 21.84C499.11 21.4333 498.953 21.1067 498.713 20.86C498.48 20.6133 498.14 20.49 497.693 20.49C497.24 20.49 496.893 20.6133 496.653 20.86C496.42 21.1067 496.263 21.4333 496.183 21.84C496.11 22.24 496.073 22.73 496.073 23.31C496.073 23.91 496.11 24.4133 496.183 24.82C496.263 25.2267 496.42 25.5533 496.653 25.8C496.893 26.0467 497.24 26.17 497.693 26.17C498.14 26.17 498.48 26.0467 498.713 25.8C498.953 25.5533 499.11 25.2267 499.183 24.82C499.263 24.4133 499.303 23.91 499.303 23.31Z" fill="#6E737F"/>
<defs>
<filter id="filter0_d_1387_9755" x="0.932922" y="0" width="505.024" height="18" filterUnits="userSpaceOnUse" color-interpolation-filters="sRGB">
<feFlood flood-opacity="0" result="BackgroundImageFix"/>
<feColorMatrix in="SourceAlpha" type="matrix" values="0 0 0 0 0 0 0 0 0 0 0 0 0 0 0 0 0 0 127 0" result="hardAlpha"/>
<feOffset dy="4"/>
<feGaussianBlur stdDeviation="2"/>
<feComposite in2="hardAlpha" operator="out"/>
<feColorMatrix type="matrix" values="0 0 0 0 0 0 0 0 0 0 0 0 0 0 0 0 0 0 0.25 0"/>
<feBlend mode="normal" in2="BackgroundImageFix" result="effect1_dropShadow_1387_9755"/>
<feBlend mode="normal" in="SourceGraphic" in2="effect1_dropShadow_1387_9755" result="shape"/>
</filter>
</defs>
</svg>
