<svg width="77" height="24" viewBox="0 0 77 24" fill="none" xmlns="http://www.w3.org/2000/svg">
<path d="M3.65942 10V14C3.65942 16 4.71567 17 6.82817 17H8.33861C8.72942 17 9.12024 17.11 9.45824 17.3L12.5425 19.13C15.2042 20.71 17.3907 19.56 17.3907 16.59V7.41003C17.3907 4.43003 15.2042 3.29003 12.5425 4.87003L9.45824 6.70003C9.12024 6.89003 8.72942 7.00003 8.33861 7.00003H6.82817C4.71567 7.00003 3.65942 8.00003 3.65942 10Z" stroke="white" stroke-width="1.5"/>
<path d="M20.5594 8C22.4396 10.37 22.4396 13.63 20.5594 16" stroke="white" stroke-width="1.5" stroke-linecap="round" stroke-linejoin="round"/>
<rect x="20.2108" y="10.5" width="55.9813" height="3" fill="#6E737F"/>
</svg>
