<svg width="24" height="24" viewBox="0 0 24 24" fill="none" xmlns="http://www.w3.org/2000/svg">
<path d="M4.99988 10C3.89988 10 2.99988 10.9 2.99988 12C2.99988 13.1 3.89988 14 4.99988 14C6.09988 14 6.99988 13.1 6.99988 12C6.99988 10.9 6.09988 10 4.99988 10Z" stroke="white" stroke-width="2.04"/>
<path d="M19 10C17.9 10 17 10.9 17 12C17 13.1 17.9 14 19 14C20.1 14 21 13.1 21 12C21 10.9 20.1 10 19 10Z" stroke="white" stroke-width="2.04"/>
<path d="M12.0001 10C10.9001 10 10.0001 10.9 10.0001 12C10.0001 13.1 10.9001 14 12.0001 14C13.1001 14 14.0001 13.1 14.0001 12C14.0001 10.9 13.1001 10 12.0001 10Z" stroke="white" stroke-width="2.04"/>
</svg>
