<svg width="30" height="31" viewBox="0 0 30 31" fill="none" xmlns="http://www.w3.org/2000/svg">
<g filter="url(#filter0_d_1387_9811)">
<path d="M24 8.65002V14.35C24 14.69 23.99 15.02 23.97 15.33C23.25 14.51 22.18 14 21 14C18.79 14 17 15.79 17 18C17 18.75 17.21 19.46 17.58 20.06C17.78 20.4 18.04 20.71 18.34 20.97C18.03 20.99 17.7 21 17.35 21H11.65C6.89999 21 5 19.1 5 14.35V8.65002C5 3.90002 6.89999 2 11.65 2H17.35C22.1 2 24 3.90002 24 8.65002Z" stroke="#6E737F" stroke-width="1.5" stroke-linecap="round" stroke-linejoin="round"/>
<path d="M9.72 14.42C10.5208 14.42 11.17 13.7708 11.17 12.97C11.17 12.1692 10.5208 11.52 9.72 11.52C8.91919 11.52 8.27 12.1692 8.27 12.97C8.27 13.7708 8.91919 14.42 9.72 14.42Z" stroke="#6E737F" stroke-width="1.5" stroke-linecap="round" stroke-linejoin="round"/>
<path d="M16.48 12V6.34001C16.48 5.13001 15.72 4.96997 14.96 5.17997L12.07 5.96995C11.55 6.10995 11.18 6.52999 11.18 7.12999V8.14V8.81999V12.97" stroke="#6E737F" stroke-width="1.5" stroke-linecap="round" stroke-linejoin="round"/>
<path d="M15.03 13.4501C15.8308 13.4501 16.48 12.8009 16.48 12.0001C16.48 11.1992 15.8308 10.55 15.03 10.55C14.2292 10.55 13.58 11.1992 13.58 12.0001C13.58 12.8009 14.2292 13.4501 15.03 13.4501Z" stroke="#6E737F" stroke-width="1.5" stroke-linecap="round" stroke-linejoin="round"/>
<path d="M11.17 8.83002L16.48 7.38" stroke="#6E737F" stroke-width="1.5" stroke-linecap="round" stroke-linejoin="round"/>
<path d="M25 18C25 18.75 24.79 19.46 24.42 20.06C23.73 21.22 22.46 22 21 22C19.54 22 18.27 21.22 17.58 20.06C17.21 19.46 17 18.75 17 18C17 15.79 18.79 14 21 14C23.21 14 25 15.79 25 18Z" stroke="#6E737F" stroke-width="1.5" stroke-miterlimit="10" stroke-linecap="round" stroke-linejoin="round"/>
<path d="M22.49 17.98H19.51" stroke="#6E737F" stroke-width="1.5" stroke-miterlimit="10" stroke-linecap="round" stroke-linejoin="round"/>
<path d="M21 16.52V19.51" stroke="#6E737F" stroke-width="1.5" stroke-miterlimit="10" stroke-linecap="round" stroke-linejoin="round"/>
</g>
<defs>
<filter id="filter0_d_1387_9811" x="-1" y="0" width="32" height="32" filterUnits="userSpaceOnUse" color-interpolation-filters="sRGB">
<feFlood flood-opacity="0" result="BackgroundImageFix"/>
<feColorMatrix in="SourceAlpha" type="matrix" values="0 0 0 0 0 0 0 0 0 0 0 0 0 0 0 0 0 0 127 0" result="hardAlpha"/>
<feOffset dy="4"/>
<feGaussianBlur stdDeviation="2"/>
<feComposite in2="hardAlpha" operator="out"/>
<feColorMatrix type="matrix" values="0 0 0 0 0 0 0 0 0 0 0 0 0 0 0 0 0 0 0.25 0"/>
<feBlend mode="normal" in2="BackgroundImageFix" result="effect1_dropShadow_1387_9811"/>
<feBlend mode="normal" in="SourceGraphic" in2="effect1_dropShadow_1387_9811" result="shape"/>
</filter>
</defs>
</svg>
