<svg width="30" height="31" viewBox="0 0 30 31" fill="none" xmlns="http://www.w3.org/2000/svg">
<g filter="url(#filter0_d_1387_9814)">
<path d="M15 15C16.6569 15 18 13.6569 18 12C18 10.3431 16.6569 9 15 9C13.3431 9 12 10.3431 12 12C12 13.6569 13.3431 15 15 15Z" stroke="#6E737F" stroke-width="1.5" stroke-miterlimit="10" stroke-linecap="round" stroke-linejoin="round"/>
<path d="M5 12.8801V11.1201C5 10.0801 5.85 9.22006 6.9 9.22006C8.71 9.22006 9.45 7.94006 8.54 6.37006C8.02 5.47006 8.33 4.30006 9.24 3.78006L10.97 2.79006C11.76 2.32006 12.78 2.60006 13.25 3.39006L13.36 3.58006C14.26 5.15006 15.74 5.15006 16.65 3.58006L16.76 3.39006C17.23 2.60006 18.25 2.32006 19.04 2.79006L20.77 3.78006C21.68 4.30006 21.99 5.47006 21.47 6.37006C20.56 7.94006 21.3 9.22006 23.11 9.22006C24.15 9.22006 25.01 10.0701 25.01 11.1201V12.8801C25.01 13.9201 24.16 14.7801 23.11 14.7801C21.3 14.7801 20.56 16.0601 21.47 17.6301C21.99 18.5401 21.68 19.7001 20.77 20.2201L19.04 21.2101C18.25 21.6801 17.23 21.4001 16.76 20.6101L16.65 20.4201C15.75 18.8501 14.27 18.8501 13.36 20.4201L13.25 20.6101C12.78 21.4001 11.76 21.6801 10.97 21.2101L9.24 20.2201C8.33 19.7001 8.02 18.5301 8.54 17.6301C9.45 16.0601 8.71 14.7801 6.9 14.7801C5.85 14.7801 5 13.9201 5 12.8801Z" stroke="#6E737F" stroke-width="1.5" stroke-miterlimit="10" stroke-linecap="round" stroke-linejoin="round"/>
</g>
<defs>
<filter id="filter0_d_1387_9814" x="-1" y="0" width="32" height="32" filterUnits="userSpaceOnUse" color-interpolation-filters="sRGB">
<feFlood flood-opacity="0" result="BackgroundImageFix"/>
<feColorMatrix in="SourceAlpha" type="matrix" values="0 0 0 0 0 0 0 0 0 0 0 0 0 0 0 0 0 0 127 0" result="hardAlpha"/>
<feOffset dy="4"/>
<feGaussianBlur stdDeviation="2"/>
<feComposite in2="hardAlpha" operator="out"/>
<feColorMatrix type="matrix" values="0 0 0 0 0 0 0 0 0 0 0 0 0 0 0 0 0 0 0.25 0"/>
<feBlend mode="normal" in2="BackgroundImageFix" result="effect1_dropShadow_1387_9814"/>
<feBlend mode="normal" in="SourceGraphic" in2="effect1_dropShadow_1387_9814" result="shape"/>
</filter>
</defs>
</svg>
