<svg width="133" height="48" viewBox="0 0 133 48" fill="none" xmlns="http://www.w3.org/2000/svg">
<path fill-rule="evenodd" clip-rule="evenodd" d="M55.5199 42.9145L53.6612 42.9149C53.4997 42.917 53.5432 42.9382 53.5432 42.406V5.14942H55.5194H62.8438C63.1636 5.14942 68.4731 5.1408 68.5606 5.15265C68.6249 5.16145 68.7131 5.15463 68.7853 5.16451C68.9157 5.18229 69.0679 5.18355 69.2078 5.20331L69.8058 5.29132C69.869 5.30174 69.947 5.32563 70.0102 5.32671C70.0301 5.33821 70.1756 5.36605 70.2088 5.37305L70.7977 5.52933C71.052 5.6107 71.2963 5.69063 71.5341 5.78619C72.1057 6.01593 72.9465 6.45206 73.4689 6.84383C73.5194 6.88173 73.563 6.91155 73.6124 6.94873L74.4274 7.62394C74.5513 7.74932 74.6869 7.86051 74.8003 7.99613L75.0483 8.25659C75.2914 8.50806 75.7192 9.08772 75.9132 9.37871C75.9827 9.48307 76.0411 9.57414 76.1058 9.68282C76.1697 9.79005 76.2299 9.8849 76.2908 9.99465C76.4375 10.2592 76.5035 10.4108 76.6299 10.6607C76.8243 11.0444 77.0551 11.7182 77.1674 12.1105C77.76 14.185 77.594 16.1768 76.8733 18.0715L76.696 18.5093C76.6319 18.6627 76.3986 19.1595 76.3321 19.2689L76.0661 19.748C75.8568 20.0977 75.711 20.324 75.4692 20.6531C75.397 20.7514 75.3328 20.8419 75.2554 20.936L74.9774 21.273C74.9474 21.3039 74.9431 21.31 74.917 21.3425C74.8971 21.3673 74.8807 21.3793 74.8588 21.4027L74.6769 21.5992C74.5693 21.7343 74.4681 21.8086 74.3679 21.9053C74.3431 21.9292 74.3273 21.9462 74.3031 21.9707L74.1026 22.1487C74.0728 22.1738 74.0668 22.183 74.0331 22.2092L73.7595 22.4323C73.7085 22.4704 73.6684 22.5004 73.6174 22.5386C73.5659 22.5774 73.5224 22.6062 73.4721 22.6417C73.373 22.7122 73.2794 22.7723 73.1741 22.8404L72.8612 23.0242C72.7473 23.0815 72.6536 23.1425 72.5328 23.1925C72.3164 23.2817 72.2397 23.3241 72.004 23.4089L71.426 23.5878C71.426 23.9712 71.3441 23.8194 71.8451 23.8903C72.4407 23.9746 72.4224 23.9501 73.0771 24.1129L73.6375 24.2857C74.2551 24.5318 74.5051 24.6121 75.1256 24.9857C75.279 25.078 75.4268 25.1696 75.5705 25.2742C75.6432 25.3271 75.7097 25.3694 75.7783 25.4211C75.813 25.4471 75.8417 25.4687 75.8796 25.4971C75.9208 25.528 75.9456 25.5495 75.986 25.5801C76.1496 25.7031 76.2637 25.8181 76.3864 25.9129C76.4999 26.0007 76.8311 26.3381 76.9403 26.4471C77.0057 26.5127 77.0539 26.5698 77.118 26.6361C77.1509 26.6702 77.1652 26.6945 77.2008 26.7307L77.2832 26.8258C77.3026 26.8475 77.3012 26.8502 77.3197 26.8721L77.4488 27.0268C77.4774 27.0616 77.5009 27.0904 77.5273 27.1257C77.5564 27.1647 77.5814 27.1936 77.6102 27.2323C77.6635 27.3036 77.7151 27.372 77.7655 27.4435C77.9655 27.7269 78.1636 28.0294 78.3333 28.3418L78.6951 29.0569L79.0058 29.8341L79.1779 30.3836C79.2914 30.8409 79.3597 31.0908 79.4298 31.5747C79.4639 31.8104 79.4736 32.0559 79.4993 32.2266C79.5083 32.2862 79.5 32.3394 79.5048 32.3983C79.563 33.1035 79.451 34.2287 79.2986 34.8899C79.2253 35.2084 79.1715 35.4392 79.0772 35.7447C78.9793 36.061 78.8271 36.5002 78.6922 36.8027L78.3457 37.5557C78.3134 37.5787 78.3019 37.6182 78.2821 37.6583L78.0919 38.0001C77.804 38.4869 77.3818 39.1172 77.0057 39.5397C76.9728 39.5765 76.9581 39.5982 76.9229 39.6343L76.7636 39.8179C76.6996 39.8815 76.6556 39.9376 76.5919 40.0011L76.0598 40.5217C75.7674 40.8114 74.9937 41.3805 74.6663 41.5765L73.7563 42.0738C73.3006 42.2765 72.9929 42.4205 72.4856 42.5655C72.3881 42.5933 72.3017 42.6208 72.2045 42.6415C71.8921 42.7218 71.3108 42.8425 70.9645 42.8658L70.5042 42.9021C69.8677 42.91 69.2162 42.9134 68.564 42.9134H61.0891H55.5199V42.9145ZM72.2045 47.8939C72.4721 47.8939 73.6605 47.6942 73.9485 47.6367C74.672 47.4921 75.235 47.3311 75.9222 47.1028C76.0488 47.0608 76.1717 47.0163 76.2956 46.9678C76.5335 46.8747 76.9807 46.7024 77.1823 46.6006C77.241 46.571 77.296 46.5496 77.3517 46.5217C77.4641 46.4653 77.5823 46.412 77.6948 46.3561C77.7533 46.3268 77.7953 46.2995 77.8562 46.2694L78.3443 46.0012C78.7138 45.8138 79.3712 45.3441 79.68 45.1124C79.9421 44.9157 80.196 44.707 80.4414 44.4902C80.6559 44.3007 81.2799 43.6971 81.422 43.5191C81.4477 43.487 81.4516 43.4798 81.4823 43.4494C81.6537 43.2809 82.0329 42.7949 82.1753 42.605L82.8536 41.6154C82.8906 41.5581 82.9233 41.5032 82.9571 41.4469C82.9926 41.3875 83.0302 41.328 83.0636 41.2697L83.4545 40.5488C83.9039 39.65 84.2701 38.7202 84.5426 37.7458C84.6655 37.3062 84.7726 36.8505 84.8629 36.3984C84.9748 35.839 85.0524 35.2745 85.1122 34.7081C85.1205 34.6301 85.1257 34.5375 85.1372 34.4491C85.1981 33.979 85.2144 33.0511 85.2168 32.5887L85.1844 31.9232C85.1781 31.877 85.1841 31.8339 85.178 31.7878C85.1356 31.4743 85.1237 31.1481 85.063 30.791C85.0357 30.6308 85.012 30.4716 84.9813 30.3168C84.95 30.1591 84.9155 30.0156 84.8827 29.8596C84.8521 29.7143 84.8049 29.5627 84.7672 29.419C84.6373 28.9236 84.4474 28.4555 84.257 27.9896C84.2432 27.9558 84.2263 27.9263 84.2114 27.8931L83.7878 27.0631C83.4879 26.5639 83.351 26.3648 83.0084 25.9028C82.8522 25.6921 82.6715 25.4956 82.4992 25.3002L82.0792 24.8804C82.0302 24.8332 81.9927 24.7911 81.9436 24.7439L81.7247 24.5488C81.6954 24.5215 81.6787 24.5134 81.6478 24.4838C81.2436 24.0989 80.2144 23.4258 79.7525 23.1856C79.7215 23.1695 79.6888 23.1557 79.6582 23.138C79.6094 23.1097 79.5282 23.0579 79.4686 23.0439C79.4815 22.9951 79.5352 22.9681 79.5751 22.9376C79.6011 22.9175 79.6063 22.9112 79.6311 22.8871L80.5501 21.9491C80.7707 21.6671 80.8924 21.5345 81.1199 21.206L81.2927 20.9529C81.591 20.5056 81.8387 20.0312 82.0789 19.5511C82.2714 19.1663 82.4493 18.7223 82.584 18.3176C82.6584 18.094 82.7304 17.8847 82.795 17.6534C82.9264 17.1831 83.0438 16.7128 83.1112 16.219C83.1367 16.0324 83.171 15.846 83.1827 15.652C83.1863 15.5945 83.1924 15.5068 83.2014 15.4459C83.2197 15.3231 83.2299 14.759 83.2299 14.5992C83.2299 14.4452 83.2175 14.3274 83.2181 14.1735C83.2184 14.0876 83.2066 14.0447 83.2059 13.973C83.1956 13.0591 82.9476 11.6159 82.6963 10.7687C82.6628 10.6557 82.6364 10.5447 82.5985 10.4286L82.3857 9.7782C82.2625 9.40457 82.104 9.04892 81.9492 8.68895C81.8594 8.48004 81.7017 8.12726 81.5928 7.94547L81.0442 6.98017L80.699 6.45027C80.4112 6.01863 80.0895 5.61321 79.7565 5.2166L79.6532 5.09517C79.6326 5.06841 79.6234 5.06302 79.602 5.04003C79.4783 4.90764 79.3651 4.76735 79.2356 4.63784C79.1918 4.59402 79.1743 4.57372 79.1345 4.52594L78.5785 3.98185C78.5525 3.95994 78.5458 3.9594 78.5196 3.93425L78.408 3.83294C78.3804 3.80959 78.3748 3.79702 78.3454 3.77744C78.3233 3.74421 78.3348 3.76127 78.3033 3.73666L77.5257 3.09504C77.4567 3.03864 77.3854 2.98942 77.3165 2.93751C76.8681 2.60017 75.9987 2.03992 75.4755 1.77425C75.2793 1.67474 74.9156 1.47912 74.716 1.39829L74.1991 1.16999C73.6072 0.933959 73.159 0.764752 72.5237 0.586383C71.9338 0.420768 70.9881 0.207373 70.349 0.135343C70.2388 0.122949 70.1237 0.0988787 70.0104 0.0988787C69.9435 0.0713959 68.9319 0.0058325 68.7774 0.00385661C68.0541 -0.00512468 67.2815 0.00439549 66.5535 0.00439549C65.3681 0.00439549 64.1828 0.00439549 62.9974 0.00439549H55.5201H47.7833V47.9884H55.5196H60.7934H68.564L71.1037 47.9733C71.1742 47.9636 71.2503 47.9708 71.3312 47.9641L71.9932 47.9167C72.0493 47.9124 72.1492 47.8952 72.2047 47.8939H72.2045Z" fill="white"/>
<path fill-rule="evenodd" clip-rule="evenodd" d="M92.8333 13.9847V32.7784C92.8333 33.1337 93.0219 33.4594 93.2029 33.6388C93.4187 33.8528 93.7314 34.0202 94.0633 34.0202H96.2988C96.5567 34.0202 96.8247 33.895 97.0137 33.7534L97.143 33.6343C97.4286 33.3254 97.517 33.0479 97.517 32.6008V14.1618C97.517 13.6495 97.3607 13.2402 96.9471 12.9576C96.7028 12.7907 96.4401 12.7306 96.1095 12.7306H94.2525C93.9227 12.7306 93.7057 12.7724 93.4519 12.9235C93.2148 13.0647 93.0163 13.3014 92.9175 13.5601C92.8683 13.689 92.8331 13.8358 92.8331 13.9843L92.8333 13.9847ZM128.315 20.5371V26.2379C128.315 26.5163 128.392 26.7653 128.528 26.9715C128.549 27.0033 128.567 27.0284 128.592 27.0609C128.609 27.0823 128.615 27.0855 128.631 27.1049C128.851 27.3658 129.193 27.5508 129.546 27.5508H131.769C132.246 27.5508 132.716 27.2005 132.888 26.789C132.95 26.641 132.999 26.4766 132.999 26.2735V20.4899C132.999 20.2896 132.947 20.0914 132.881 19.9574C132.796 19.7848 132.737 19.7011 132.606 19.5704C132.391 19.3546 132.079 19.2007 131.651 19.2007H129.688C128.9 19.2007 128.316 19.7338 128.316 20.5373L128.315 20.5371ZM116.488 18.8811V27.8581C116.488 28.277 116.631 28.503 116.853 28.7708C116.917 28.8484 117.125 28.9907 117.225 29.037C117.355 29.097 117.559 29.1591 117.742 29.1591H119.895C120.115 29.1591 120.263 29.1047 120.417 29.0427C120.483 29.0156 120.565 28.9677 120.62 28.9262C120.652 28.9016 120.684 28.8809 120.714 28.8547C120.744 28.8279 120.767 28.8011 120.797 28.7719C120.92 28.6485 120.983 28.5552 121.062 28.3866C121.129 28.2413 121.172 28.0546 121.172 27.8464V18.9167C121.172 18.4143 120.909 17.9611 120.466 17.7418C120.334 17.6762 120.156 17.6038 119.966 17.6038H117.695C117.514 17.6038 117.332 17.673 117.21 17.7339C116.773 17.9526 116.488 18.3837 116.488 18.8811H116.488ZM104.661 17.0716V29.6797C104.661 30.3756 105.242 30.957 105.938 30.957H108.067C108.444 30.957 108.734 30.8034 108.981 30.5579C109.194 30.3456 109.344 30.0318 109.344 29.6087V17.1662C109.344 16.7835 109.264 16.5821 109.077 16.3098C109.05 16.2694 109.029 16.2563 109.002 16.2202C108.838 16.0062 108.416 15.8063 108.114 15.8063H105.891C105.527 15.8063 105.216 16.003 105.03 16.1876C104.841 16.3757 104.661 16.6981 104.661 17.0718L104.661 17.0716Z" fill="white"/>
<path fill-rule="evenodd" clip-rule="evenodd" d="M35.4941 13.9254V32.8256C35.4941 32.9921 35.558 33.1791 35.6164 33.2948C35.7495 33.5594 35.9514 33.7651 36.2194 33.8982C36.3311 33.9537 36.54 34.0201 36.7004 34.0201H38.9359C39.1349 34.0201 39.2887 33.9612 39.4311 33.9005C39.4927 33.8743 39.5667 33.8245 39.6244 33.7863C39.9276 33.5845 40.166 33.1651 40.166 32.7784V13.9728C40.166 13.795 40.0959 13.5625 40.0321 13.4443C39.9386 13.271 39.875 13.2031 39.7433 13.0707C39.4873 12.8135 39.1182 12.7309 38.7467 12.7309H36.8898C36.4024 12.7309 36.0694 12.8672 35.7698 13.2194C35.6333 13.38 35.4941 13.6965 35.4941 13.9254ZM0 20.4896V26.2497C0 26.5843 0.13454 26.9315 0.357455 27.1577C0.544626 27.3474 0.860049 27.5507 1.2299 27.5507H3.45349C3.88405 27.5507 4.25588 27.287 4.4567 26.9926C4.59788 26.7857 4.68374 26.5403 4.68374 26.2615V20.5133C4.68374 20.1731 4.57309 19.9014 4.37802 19.6599C4.35198 19.6278 4.3209 19.6008 4.29036 19.5701C4.0326 19.31 3.70065 19.2005 3.31158 19.2005H1.37198C0.803107 19.2005 0.375418 19.4469 0.126097 19.9416C0.0558636 20.0806 0 20.2859 0 20.4896ZM11.8275 18.9166V27.8464C11.8275 28.0474 11.8717 28.2398 11.934 28.3786C11.967 28.4523 12.0024 28.5171 12.0473 28.5845C12.1014 28.6657 12.1305 28.6994 12.197 28.7661L12.574 29.0396C12.731 29.1032 12.8853 29.1594 13.1046 29.1594H15.2572C15.5155 29.1594 15.7767 29.0576 15.9668 28.9229L16.1417 28.7783C16.2346 28.6789 16.3424 28.5308 16.3961 28.4059C16.4571 28.264 16.5108 28.0797 16.5108 27.8819V18.8813C16.5108 18.6979 16.4611 18.4997 16.4043 18.3727C16.2152 17.9479 15.755 17.6039 15.3043 17.6039H13.0572C12.7737 17.6039 12.5654 17.7088 12.357 17.8498C12.2575 17.9172 12.1914 17.9903 12.1147 18.0805C12.0886 18.1114 12.0678 18.1414 12.0448 18.176C11.9938 18.2526 11.9712 18.2985 11.9334 18.3841C11.8691 18.5299 11.8273 18.7063 11.8273 18.9166H11.8275ZM23.6548 17.1543V29.585C23.6548 30.1544 23.9007 30.5814 24.3959 30.8309C24.5349 30.9011 24.728 30.957 24.9321 30.957H27.061C27.2643 30.957 27.4283 30.9074 27.5765 30.8458C28.0103 30.6649 28.3383 30.1794 28.3383 29.7034V17.0717C28.3383 16.551 28.0297 16.1438 27.609 15.9323C27.4738 15.8644 27.3042 15.8062 27.1084 15.8062H24.8848C24.6287 15.8062 24.3634 15.9207 24.1784 16.0577C24.1381 16.0875 24.1247 16.1035 24.0889 16.1337C24.0059 16.2036 23.9229 16.2981 23.8638 16.3934C23.72 16.6261 23.6548 16.8474 23.6548 17.1543Z" fill="white"/>
<path fill-rule="evenodd" clip-rule="evenodd" d="M58.7349 24.2627H54.2285V42.2287H58.7342H65.4571H68.1613C68.4556 42.2287 70.4103 42.2492 70.6736 42.21C70.7447 42.1994 70.822 42.198 70.8924 42.1922C71.6511 42.1292 72.7414 41.8226 73.4127 41.4836L74.3078 40.9868C74.3724 40.9719 74.7152 40.7224 74.7752 40.6816C74.9769 40.544 75.1323 40.4112 75.3151 40.2636C75.3548 40.2316 75.3771 40.2093 75.4182 40.1775L76.254 39.3692C76.2747 39.3457 76.2749 39.3398 76.2955 39.3162C76.3323 39.2746 76.3544 39.2566 76.3913 39.211L76.7397 38.7907C76.963 38.5158 77.1852 38.1823 77.377 37.8785C77.4281 37.7979 77.4701 37.7222 77.5173 37.6403C77.6219 37.4587 77.8434 37.0637 77.9172 36.8811L78.1503 36.3454C78.5099 35.4466 78.7413 34.4931 78.8171 33.5231C78.8259 33.4107 78.8182 33.2582 78.8345 33.1502C78.852 33.0349 78.8414 32.9 78.8414 32.7786C78.8414 32.6388 78.8284 32.5267 78.8295 32.4001C78.8306 32.2762 78.8096 32.1653 78.8058 32.0453L78.7668 31.694C78.7379 31.4745 78.696 31.2476 78.6529 31.0391C78.5522 30.5512 78.3892 30.0226 78.1976 29.5665L78.0172 29.1674C77.9935 29.1203 77.982 29.0842 77.9583 29.037L77.8243 28.7806C77.7807 28.6968 77.7266 28.6147 77.6822 28.5324C77.637 28.4485 77.5867 28.3734 77.5353 28.289C77.4864 28.2089 77.4358 28.139 77.3842 28.0616C77.3296 27.9797 77.2779 27.9122 77.2233 27.8322C77.131 27.6966 76.9555 27.4857 76.8443 27.3479C76.8276 27.3273 76.8164 27.3197 76.7988 27.2989L76.7106 27.1978C76.6754 27.1538 76.66 27.1385 76.6205 27.0986C76.5831 27.0607 76.5664 27.0316 76.5262 26.9918C76.3058 26.7739 76.1653 26.6293 75.9345 26.4243L75.6174 26.1617C75.5745 26.1294 75.545 26.1044 75.5041 26.0739C75.2835 25.9088 75.055 25.7408 74.8192 25.5998L74.323 25.3119C74.1896 25.225 73.6053 24.9668 73.463 24.9099C72.7213 24.6131 71.6996 24.3385 70.8814 24.2981C70.7963 24.2938 70.6725 24.2753 70.5859 24.2742C70.536 24.2735 70.4809 24.2772 70.4316 24.2747C70.3765 24.2719 70.3587 24.2629 70.2895 24.2629H67.1044H64.4081H58.7346L58.7349 24.2627ZM67.1039 29.2067C67.6456 29.2067 68.1872 29.2067 68.729 29.2067C68.9896 29.2067 69.2894 29.1929 69.5452 29.2065C69.6662 29.213 69.8073 29.2292 69.9237 29.2421L70.2901 29.3012C70.3075 29.3208 70.4334 29.3404 70.4663 29.3499C70.5311 29.3689 70.5902 29.3876 70.6554 29.4092C70.9057 29.4921 71.0957 29.5823 71.3186 29.7158C71.8219 30.0172 72.2112 30.4305 72.5191 30.9401C72.7682 31.3525 72.9602 31.8916 73.0376 32.3611C73.1034 32.7597 73.1052 32.8727 73.1052 33.2634C73.1052 34.1721 72.7894 35.146 72.2446 35.809C72.2247 35.8331 72.2124 35.8507 72.1914 35.8743L71.8958 36.1819C71.4163 36.6657 70.7286 36.9263 70.0674 37.0382C69.674 37.1049 68.6267 37.0837 68.1615 37.0837H65.2685H59.6456V29.2067H64.2078H67.1041H67.1039Z" fill="white"/>
<path fill-rule="evenodd" clip-rule="evenodd" d="M56.7831 23.6596H59.4315H62.3539H65.3471C65.6649 23.6596 68.2109 23.6754 68.3891 23.6509C68.4875 23.6375 68.5917 23.6579 68.6902 23.6445C68.7679 23.6339 68.8881 23.6281 68.977 23.6238C69.1308 23.6163 69.9772 23.5 70.0348 23.4584C70.2709 23.4541 71.2529 23.1153 71.4643 23.024L72.0957 22.733C72.1894 22.6862 72.6118 22.4611 72.6915 22.3939C73.0012 22.2254 73.7204 21.6795 73.9478 21.4509C74.0493 21.3489 74.3313 21.0941 74.4143 20.9948L74.6753 20.6999C74.7367 20.6307 74.784 20.5711 74.842 20.4998C74.9542 20.3618 75.0645 20.226 75.1653 20.078C75.6232 19.406 75.8993 18.9311 76.2071 18.163C76.9576 16.2908 77.0591 14.1293 76.48 12.1707C76.1647 11.1041 75.6437 10.0906 74.9907 9.22482C74.8014 8.97389 74.5361 8.65559 74.3081 8.4289L73.9417 8.06211C73.7402 7.85985 73.3559 7.55933 73.1337 7.39174L72.6913 7.08925C72.4082 6.9037 72.1106 6.74114 71.8079 6.58845C71.7583 6.56349 71.7192 6.55055 71.6698 6.52541C71.5832 6.4814 71.486 6.44026 71.4 6.40488C71.0971 6.27986 70.836 6.1816 70.5105 6.08784C69.4622 5.78607 68.7755 5.75266 67.6548 5.75266H64.2893H59.6904H56.7831H54.2403H54.2285V23.6594H56.7831V23.6596ZM59.6911 18.5738H59.6455V10.9686H59.6913H64.6437H67.2032C67.2898 10.9681 67.3264 10.9808 67.4037 10.9808C67.7839 10.9814 67.7116 11.0044 68.0088 11.0277C68.0898 11.0349 68.194 11.0613 68.2747 11.0796C68.378 11.1032 68.4408 11.1222 68.5351 11.1502C68.889 11.2553 69.3347 11.4759 69.6129 11.7046C69.6461 11.7319 69.6704 11.7504 69.7052 11.7777C69.8786 11.9138 69.9768 12.0385 70.1153 12.1836C70.1793 12.2508 70.2705 12.383 70.3303 12.4653C70.6086 12.8484 70.8688 13.4791 70.9506 13.974C71.0591 14.6314 71.061 15.0968 70.9197 15.7612C70.8433 16.1201 70.7154 16.4332 70.5699 16.7244L70.455 16.9286C70.3163 17.1585 70.2534 17.2175 70.1056 17.4073C70.0765 17.4447 70.0494 17.4632 70.0296 17.5038C70.0095 17.5097 70.0298 17.4989 70.0092 17.5135C69.9662 17.5433 69.9953 17.548 69.8976 17.6254L69.6591 17.8363C69.5903 17.8918 69.5295 17.9367 69.4546 17.9866C69.1958 18.1589 69.0316 18.2336 68.7318 18.352C68.5581 18.4206 68.3663 18.4662 68.1637 18.5054C67.695 18.5961 67.2806 18.5733 66.8005 18.5733C66.316 18.5733 65.8316 18.5733 65.3473 18.5733H62.3533H59.6905L59.6911 18.5738Z" fill="white"/>
</svg>
