<svg width="24" height="24" viewBox="0 0 24 24" fill="none" xmlns="http://www.w3.org/2000/svg">
<path d="M17 4.99414H7C4 4.99414 2 6.99414 2 9.99414V16.9941C2 19.9941 4 21.9941 7 21.9941H17C20 21.9941 22 19.9941 22 16.9941V9.99414C22 6.99414 20 4.99414 17 4.99414Z" stroke="#6E737F" stroke-width="1.5" stroke-linecap="round" stroke-linejoin="round"/>
<path d="M7 1.99414V4.99414" stroke="#6E737F" stroke-width="1.5" stroke-linecap="round" stroke-linejoin="round"/>
<path d="M8.5 15.9941C9.88071 15.9941 11 14.8749 11 13.4941C11 12.1134 9.88071 10.9941 8.5 10.9941C7.11929 10.9941 6 12.1134 6 13.4941C6 14.8749 7.11929 15.9941 8.5 15.9941Z" stroke="#6E737F" stroke-width="1.5" stroke-linecap="round" stroke-linejoin="round"/>
<path d="M14.5 10.9941H18.5" stroke="#6E737F" stroke-width="1.5" stroke-linecap="round" stroke-linejoin="round"/>
<path d="M14.5 14.9941H15" stroke="#6E737F" stroke-width="1.5" stroke-linecap="round" stroke-linejoin="round"/>
<path d="M18 14.9941H18.5" stroke="#6E737F" stroke-width="1.5" stroke-linecap="round" stroke-linejoin="round"/>
</svg>
