<svg width="32" height="32" viewBox="0 0 32 32" fill="none" xmlns="http://www.w3.org/2000/svg">
<path d="M16.0261 3.87988C11.6127 3.87988 8.02605 7.46655 8.02605 11.8799V15.7332C8.02605 16.5466 7.67938 17.7865 7.26605 18.4799L5.73272 21.0266C4.78605 22.5999 5.43938 24.3466 7.17272 24.9332C12.9194 26.8532 19.1194 26.8532 24.866 24.9332C26.4794 24.3999 27.186 22.4932 26.306 21.0266L24.7727 18.4799C24.3727 17.7865 24.0261 16.5466 24.0261 15.7332V11.8799C24.0261 7.47988 20.4261 3.87988 16.0261 3.87988Z" stroke="#051C3A" stroke-width="1.5" stroke-miterlimit="10" stroke-linecap="round"/>
<path d="M18.4928 4.26667C18.0794 4.14667 17.6528 4.05334 17.2128 4C15.9328 3.84 14.7061 3.93334 13.5594 4.26667C13.9461 3.28 14.9061 2.58667 16.0261 2.58667C17.1461 2.58667 18.1061 3.28 18.4928 4.26667Z" stroke="#051C3A" stroke-width="1.5" stroke-miterlimit="10" stroke-linecap="round" stroke-linejoin="round"/>
<path d="M20.026 25.4133C20.026 27.6133 18.226 29.4133 16.026 29.4133C14.9327 29.4133 13.9193 28.96 13.1993 28.24C12.4793 27.52 12.026 26.5067 12.026 25.4133" stroke="#051C3A" stroke-width="1.5" stroke-miterlimit="10"/>
</svg>
