<svg width="50" height="50" viewBox="0 0 50 50" fill="none" xmlns="http://www.w3.org/2000/svg">
<path d="M35.4171 45.833H14.5838C8.33378 45.833 4.16711 42.708 4.16711 35.4163V24.9997C4.16711 17.708 8.33378 14.583 14.5838 14.583H35.4171C41.6671 14.583 45.8338 17.708 45.8338 24.9997V35.4163C45.8338 42.708 41.6671 45.833 35.4171 45.833Z" stroke="white" stroke-width="2" stroke-miterlimit="10" stroke-linecap="round" stroke-linejoin="round"/>
<path d="M12.5001 9.37451H37.5001" stroke="white" stroke-width="2" stroke-miterlimit="10" stroke-linecap="round" stroke-linejoin="round"/>
<path d="M18.7501 4.16711H31.2501" stroke="white" stroke-width="2" stroke-miterlimit="10" stroke-linecap="round" stroke-linejoin="round"/>
<path d="M20.3752 36.9582C20.3752 37.9822 19.5451 38.8123 18.521 38.8123C17.497 38.8123 16.6669 37.9822 16.6669 36.9582C16.6669 35.9341 17.497 35.104 18.521 35.104C19.5451 35.104 20.3752 35.9341 20.3752 36.9582Z" stroke="white" stroke-width="2" stroke-linecap="round" stroke-linejoin="round"/>
<mask id="path-5-inside-1_723_4619" fill="white">
<path d="M31.834 35.0628V23.9169C31.834 21.5419 30.3548 21.2086 28.834 21.6253L23.1255 23.1878C22.0839 23.4795 21.3756 24.2919 21.3756 25.4794V27.4586V28.792V36.9586"/>
</mask>
<path d="M29.834 35.0628C29.834 36.1674 30.7294 37.0628 31.834 37.0628C32.9386 37.0628 33.834 36.1674 33.834 35.0628H29.834ZM28.834 21.6253L29.362 23.5544L29.3624 23.5542L28.834 21.6253ZM23.1255 23.1878L22.5975 21.2587L22.5863 21.2619L23.1255 23.1878ZM19.3756 36.9586C19.3756 38.0632 20.271 38.9586 21.3756 38.9586C22.4802 38.9586 23.3756 38.0632 23.3756 36.9586H19.3756ZM33.834 35.0628V23.9169H29.834V35.0628H33.834ZM33.834 23.9169C33.834 22.3358 33.3189 20.8211 31.9155 19.9987C30.6642 19.2654 29.2613 19.4345 28.3055 19.6964L29.3624 23.5542C29.6071 23.4872 29.783 23.4699 29.889 23.4728C29.9918 23.4757 29.9703 23.495 29.8931 23.4498C29.854 23.4269 29.8171 23.3965 29.7879 23.3636C29.7594 23.3313 29.7522 23.3124 29.7572 23.3233C29.7705 23.3527 29.834 23.5191 29.834 23.9169H33.834ZM28.306 19.6963L22.5975 21.2588L23.6536 25.1169L29.362 23.5544L28.306 19.6963ZM22.5863 21.2619C20.7492 21.7763 19.3756 23.326 19.3756 25.4794H23.3756C23.3756 25.3827 23.3897 25.3244 23.3997 25.2946C23.4094 25.2656 23.4196 25.2498 23.4278 25.2393C23.4403 25.2236 23.4966 25.1608 23.6648 25.1137L22.5863 21.2619ZM19.3756 25.4794V27.4586H23.3756V25.4794H19.3756ZM19.3756 27.4586V28.792H23.3756V27.4586H19.3756ZM19.3756 28.792V36.9586H23.3756V28.792H19.3756Z" fill="white" mask="url(#path-5-inside-1_723_4619)"/>
<path d="M30.8337 35.0623C30.8337 36.0863 30.0035 36.9164 28.9794 36.9164C27.9554 36.9164 27.1252 36.0863 27.1252 35.0623C27.1252 34.0383 27.9554 33.2081 28.9794 33.2081C30.0035 33.2081 30.8337 34.0383 30.8337 35.0623Z" stroke="white" stroke-width="2" stroke-linecap="round" stroke-linejoin="round"/>
<path d="M21.3756 28.8123L31.834 25.9581" stroke="white" stroke-width="2" stroke-linecap="round" stroke-linejoin="round"/>
</svg>
