<svg width="24" height="24" viewBox="0 0 24 24" fill="none" xmlns="http://www.w3.org/2000/svg">
<path d="M17.8001 2.09414L7.87009 4.58414C6.42009 4.94414 4.95009 6.41414 4.59009 7.86414L2.10009 17.7941C1.35009 20.7941 3.19009 22.6441 6.20009 21.8941L16.1301 19.4141C17.5701 19.0541 19.0501 17.5741 19.4101 16.1341L21.9001 6.19414C22.6501 3.19414 20.8001 1.34414 17.8001 2.09414Z" stroke="#6E737F" stroke-width="1.5" stroke-linecap="round" stroke-linejoin="round"/>
<path d="M12 15.4941C13.933 15.4941 15.5 13.9271 15.5 11.9941C15.5 10.0611 13.933 8.49414 12 8.49414C10.067 8.49414 8.5 10.0611 8.5 11.9941C8.5 13.9271 10.067 15.4941 12 15.4941Z" stroke="#6E737F" stroke-width="1.5" stroke-linecap="round" stroke-linejoin="round"/>
</svg>
