<svg width="24" height="24" viewBox="0 0 24 24" fill="none" xmlns="http://www.w3.org/2000/svg">
<path d="M6.75992 21.9941H17.2399C19.9999 21.9941 21.0999 20.3041 21.2299 18.2441L21.7499 9.98414C21.8899 7.82414 20.1699 5.99414 17.9999 5.99414C17.3899 5.99414 16.8299 5.64414 16.5499 5.10414L15.8299 3.65414C15.3699 2.74414 14.1699 1.99414 13.1499 1.99414H10.8599C9.82992 1.99414 8.62992 2.74414 8.16992 3.65414L7.44992 5.10414C7.16992 5.64414 6.60992 5.99414 5.99992 5.99414C3.82992 5.99414 2.10992 7.82414 2.24992 9.98414L2.76992 18.2441C2.88992 20.3041 3.99992 21.9941 6.75992 21.9941Z" stroke="#6E737F" stroke-width="1.5" stroke-linecap="round" stroke-linejoin="round"/>
<path d="M10.5 7.99414H13.5" stroke="#6E737F" stroke-width="1.5" stroke-linecap="round" stroke-linejoin="round"/>
<path d="M12 17.9941C13.79 17.9941 15.25 16.5341 15.25 14.7441C15.25 12.9541 13.79 11.4941 12 11.4941C10.21 11.4941 8.75 12.9541 8.75 14.7441C8.75 16.5341 10.21 17.9941 12 17.9941Z" stroke="#6E737F" stroke-width="1.5" stroke-linecap="round" stroke-linejoin="round"/>
</svg>
