<svg width="50" height="50" viewBox="0 0 50 50" fill="none" xmlns="http://www.w3.org/2000/svg">
<path d="M39.5838 18.7498C39.5838 21.7707 38.6879 24.5415 37.1463 26.854C34.8963 30.1874 31.3338 32.5415 27.1879 33.1457C26.4796 33.2707 25.7504 33.3332 25.0004 33.3332C24.2504 33.3332 23.5213 33.2707 22.8129 33.1457C18.6671 32.5415 15.1046 30.1874 12.8546 26.854C11.3129 24.5415 10.4171 21.7707 10.4171 18.7498C10.4171 10.6873 16.9379 4.1665 25.0004 4.1665C33.0629 4.1665 39.5838 10.6873 39.5838 18.7498Z" stroke="white" stroke-width="2" stroke-linecap="round" stroke-linejoin="round"/>
<path d="M44.2707 38.4791L40.8332 39.2915C40.0624 39.479 39.4582 40.0624 39.2915 40.8332L38.5624 43.8957C38.1665 45.5624 36.0415 46.0624 34.9374 44.7499L24.9999 33.3332L15.0624 44.7707C13.9582 46.0832 11.8332 45.5832 11.4374 43.9165L10.7082 40.854C10.5207 40.0832 9.91655 39.479 9.16655 39.3124L5.72905 38.4999C4.14571 38.1249 3.58321 36.1457 4.72905 34.9999L12.854 26.8749C15.104 30.2082 18.6665 32.5624 22.8124 33.1666C23.5207 33.2916 24.2499 33.3541 24.9999 33.3541C25.7499 33.3541 26.479 33.2916 27.1874 33.1666C31.3332 32.5624 34.8957 30.2082 37.1457 26.8749L45.2707 34.9999C46.4165 36.1249 45.854 38.1041 44.2707 38.4791Z" stroke="white" stroke-width="2" stroke-linecap="round" stroke-linejoin="round"/>
<path d="M26.2086 12.4586L27.4378 14.9169C27.6044 15.2503 28.0419 15.5836 28.4378 15.6461L30.6669 16.0211C32.0836 16.2503 32.4169 17.2919 31.3961 18.3128L29.6669 20.0419C29.3753 20.3336 29.2086 20.8961 29.3128 21.3128L29.8128 23.4586C30.2086 25.1461 29.3128 25.8127 27.8128 24.9169L25.7294 23.6878C25.3544 23.4586 24.7294 23.4586 24.3544 23.6878L22.2711 24.9169C20.7711 25.7919 19.8753 25.1461 20.2711 23.4586L20.7711 21.3128C20.8544 20.917 20.7086 20.3336 20.4169 20.0419L18.6878 18.3128C17.6669 17.2919 18.0003 16.2711 19.4169 16.0211L21.6461 15.6461C22.0211 15.5836 22.4586 15.2503 22.6253 14.9169L23.8544 12.4586C24.4586 11.1253 25.5419 11.1253 26.2086 12.4586Z" stroke="white" stroke-width="2" stroke-linecap="round" stroke-linejoin="round"/>
</svg>
