<svg width="24" height="24" viewBox="0 0 24 24" fill="none" xmlns="http://www.w3.org/2000/svg">
<path d="M19 8.99414C19 10.4441 18.57 11.7742 17.83 12.8842C16.75 14.4842 15.04 15.6141 13.05 15.9041C12.71 15.9641 12.36 15.9941 12 15.9941C11.64 15.9941 11.29 15.9641 10.95 15.9041C8.96 15.6141 7.25 14.4842 6.17 12.8842C5.43 11.7742 5 10.4441 5 8.99414C5 5.12414 8.13 1.99414 12 1.99414C15.87 1.99414 19 5.12414 19 8.99414Z" stroke="#6E737F" stroke-width="1.5" stroke-linecap="round" stroke-linejoin="round"/>
<path d="M21.2501 18.4641L19.6001 18.854C19.2301 18.944 18.9401 19.2241 18.8601 19.5941L18.5101 21.0641C18.3201 21.8641 17.3001 22.1041 16.7701 21.4741L12.0001 15.994L7.23008 21.484C6.70008 22.114 5.68008 21.874 5.49008 21.074L5.14008 19.604C5.05008 19.234 4.76008 18.944 4.40008 18.864L2.75008 18.4741C1.99008 18.2941 1.72008 17.344 2.27008 16.794L6.17008 12.894C7.25008 14.494 8.96008 15.6241 10.9501 15.9141C11.2901 15.9741 11.6401 16.0041 12.0001 16.0041C12.3601 16.0041 12.7101 15.9741 13.0501 15.9141C15.0401 15.6241 16.7501 14.494 17.8301 12.894L21.7301 16.794C22.2801 17.334 22.0101 18.2841 21.2501 18.4641Z" stroke="#6E737F" stroke-width="1.5" stroke-linecap="round" stroke-linejoin="round"/>
<path d="M12.58 5.97414L13.17 7.15413C13.25 7.31413 13.46 7.47414 13.65 7.50414L14.72 7.68413C15.4 7.79413 15.56 8.29414 15.07 8.78414L14.24 9.61412C14.1 9.75412 14.02 10.0241 14.07 10.2241L14.31 11.2541C14.5 12.0641 14.07 12.3841 13.35 11.9541L12.35 11.3641C12.17 11.2541 11.87 11.2541 11.69 11.3641L10.69 11.9541C9.96997 12.3741 9.53997 12.0641 9.72997 11.2541L9.96997 10.2241C10.01 10.0341 9.93997 9.75412 9.79997 9.61412L8.96997 8.78414C8.47997 8.29414 8.63997 7.80413 9.31997 7.68413L10.39 7.50414C10.57 7.47414 10.78 7.31413 10.86 7.15413L11.45 5.97414C11.74 5.33414 12.26 5.33414 12.58 5.97414Z" stroke="#6E737F" stroke-width="1.5" stroke-linecap="round" stroke-linejoin="round"/>
</svg>
