<svg width="134" height="48" viewBox="0 0 134 48" fill="none" xmlns="http://www.w3.org/2000/svg">
<path fill-rule="evenodd" clip-rule="evenodd" d="M56.0201 42.9204L54.1613 42.9207C53.9999 42.9229 54.0433 42.9441 54.0433 42.4118V5.15528H56.0196H63.344C63.6637 5.15528 68.9733 5.14666 69.0608 5.15851C69.1251 5.16731 69.2133 5.16049 69.2855 5.17037C69.4159 5.18815 69.568 5.18941 69.708 5.20917L70.3059 5.29718C70.3692 5.3076 70.4471 5.33149 70.5104 5.33257C70.5303 5.34406 70.6758 5.37191 70.709 5.37891L71.2978 5.53519C71.5522 5.61656 71.7965 5.69649 72.0343 5.79205C72.6059 6.02179 73.4467 6.45792 73.969 6.84969C74.0195 6.88759 74.0632 6.91741 74.1126 6.95459L74.9275 7.6298C75.0515 7.75518 75.1871 7.86637 75.3004 8.00199L75.5485 8.26245C75.7915 8.51392 76.2194 9.09357 76.4134 9.38457C76.4829 9.48893 76.5413 9.58 76.606 9.68867C76.6699 9.79591 76.7301 9.89075 76.791 10.0005C76.9377 10.2651 77.0036 10.4167 77.1301 10.6666C77.3245 11.0502 77.5553 11.724 77.6675 12.1163C78.2601 14.1908 78.0942 16.1827 77.3735 18.0774L77.1962 18.5151C77.1321 18.6685 76.8987 19.1654 76.8323 19.2748L76.5663 19.7538C76.357 20.1036 76.2111 20.3299 75.9694 20.659C75.8972 20.7572 75.833 20.8477 75.7556 20.9419L75.4775 21.2789C75.4475 21.3097 75.4432 21.3159 75.4172 21.3484C75.3973 21.3732 75.3809 21.3852 75.359 21.4085L75.177 21.6051C75.0694 21.7401 74.9683 21.8145 74.8681 21.9111C74.8433 21.935 74.8275 21.9521 74.8032 21.9765L74.6028 22.1545C74.573 22.1797 74.567 22.1888 74.5333 22.2151L74.2597 22.4382C74.2087 22.4762 74.1686 22.5062 74.1176 22.5445C74.066 22.5833 74.0226 22.612 73.9723 22.6476C73.8731 22.718 73.7795 22.7782 73.6743 22.8463L73.3614 23.03C73.2475 23.0873 73.1537 23.1484 73.033 23.1983C72.8166 23.2876 72.7399 23.33 72.5042 23.4148L71.9262 23.5937C71.9262 23.977 71.8443 23.8252 72.3452 23.8962C72.9409 23.9804 72.9225 23.956 73.5773 24.1187L74.1377 24.2915C74.7553 24.5376 75.0053 24.6179 75.6257 24.9915C75.7791 25.0839 75.927 25.1755 76.0707 25.28C76.1434 25.333 76.2099 25.3752 76.2785 25.427C76.3132 25.453 76.3419 25.4746 76.3798 25.5029C76.4209 25.5338 76.4457 25.5554 76.4861 25.5859C76.6498 25.709 76.7638 25.8239 76.8865 25.9188C77 26.0066 77.3313 26.3439 77.4405 26.453C77.5059 26.5185 77.554 26.5757 77.6182 26.6419C77.651 26.6761 77.6654 26.7003 77.701 26.7366L77.7834 26.8316C77.8028 26.8534 77.8014 26.8561 77.8199 26.878L77.949 27.0326C77.9776 27.0675 78.0011 27.0962 78.0275 27.1316C78.0566 27.1706 78.0816 27.1995 78.1103 27.2381C78.1637 27.3094 78.2152 27.3779 78.2657 27.4494C78.4656 27.7328 78.6637 28.0353 78.8335 28.3477L79.1953 29.0628L79.506 29.84L79.6781 30.3895C79.7916 30.8468 79.8599 31.0967 79.9299 31.5806C79.9641 31.8162 79.9738 32.0618 79.9994 32.2324C80.0084 32.2921 80.0002 32.3452 80.005 32.4042C80.0632 33.1094 79.9511 34.2345 79.7988 34.8957C79.7255 35.2142 79.6716 35.445 79.5773 35.7506C79.4794 36.0669 79.3273 36.5061 79.1924 36.8086L78.8459 37.5616C78.8136 37.5846 78.8021 37.6241 78.7823 37.6641L78.5921 38.006C78.3041 38.4928 77.882 39.1231 77.5059 39.5455C77.473 39.5824 77.4583 39.6041 77.4231 39.6402L77.2637 39.8238C77.1998 39.8874 77.1558 39.9434 77.092 40.007L76.56 40.5276C76.2675 40.8173 75.4939 41.3863 75.1664 41.5823L74.2564 42.0797C73.8007 42.2823 73.493 42.4264 72.9858 42.5713C72.8882 42.5992 72.8018 42.6267 72.7047 42.6473C72.3923 42.7276 71.811 42.8483 71.4647 42.8717L71.0043 42.908C70.3679 42.9159 69.7164 42.9193 69.0642 42.9193H61.5892H56.0201V42.9204ZM72.7047 47.8998C72.9723 47.8998 74.1607 47.7 74.4486 47.6425C75.1722 47.4979 75.7351 47.337 76.4224 47.1087C76.549 47.0667 76.6719 47.0221 76.7958 46.9736C77.0336 46.8806 77.4809 46.7083 77.6824 46.6065C77.7412 46.5768 77.7962 46.5554 77.8518 46.5276C77.9643 46.4712 78.0825 46.4178 78.1949 46.362C78.2535 46.3327 78.2955 46.3054 78.3564 46.2752L78.8444 46.007C79.2139 45.8197 79.8714 45.35 80.1802 45.1183C80.4422 44.9216 80.6962 44.7128 80.9416 44.496C81.1561 44.3065 81.7801 43.703 81.9222 43.525C81.9478 43.4928 81.9518 43.4856 81.9825 43.4553C82.1539 43.2868 82.5331 42.8007 82.6755 42.6109L83.3538 41.6213C83.3908 41.564 83.4235 41.509 83.4572 41.4528C83.4928 41.3934 83.5304 41.3339 83.5638 41.2755L83.9546 40.5547C84.404 39.6558 84.7703 38.7261 85.0428 37.7516C85.1657 37.3121 85.2727 36.8564 85.3631 36.4042C85.475 35.8449 85.5526 35.2803 85.6124 34.714C85.6207 34.636 85.6259 34.5433 85.6374 34.4549C85.6983 33.9849 85.7146 33.0569 85.7169 32.5946L85.6846 31.929C85.6783 31.8829 85.6842 31.8398 85.6781 31.7936C85.6357 31.4802 85.6239 31.154 85.5632 30.7969C85.5359 30.6366 85.5122 30.4775 85.4814 30.3227C85.4502 30.1649 85.4157 30.0214 85.3828 29.8655C85.3523 29.7202 85.3051 29.5686 85.2673 29.4249C85.1375 28.9295 84.9476 28.4614 84.7572 27.9954C84.7434 27.9617 84.7265 27.9322 84.7116 27.899L84.288 27.0689C83.988 26.5697 83.8512 26.3707 83.5086 25.9087C83.3523 25.698 83.1716 25.5015 82.9994 25.3061L82.5794 24.8863C82.5304 24.839 82.4928 24.797 82.4438 24.7498L82.2248 24.5547C82.1956 24.5274 82.1788 24.5193 82.1479 24.4897C81.7438 24.1047 80.7145 23.4317 80.2527 23.1915C80.2216 23.1753 80.189 23.1615 80.1584 23.1439C80.1096 23.1155 80.0284 23.0638 79.9687 23.0498C79.9817 23.0009 80.0354 22.974 80.0752 22.9434C80.1013 22.9233 80.1065 22.917 80.1313 22.893L81.0503 21.955C81.2708 21.673 81.3926 21.5404 81.62 21.2119L81.7928 20.9588C82.0912 20.5115 82.3389 20.0371 82.5791 19.557C82.7716 19.1722 82.9494 18.7282 83.0842 18.3235C83.1585 18.0998 83.2306 17.8906 83.2952 17.6592C83.4265 17.189 83.544 16.7187 83.6114 16.2249C83.6369 16.0383 83.6712 15.8518 83.6829 15.6578C83.6864 15.6003 83.6926 15.5127 83.7015 15.4518C83.7199 15.3289 83.7301 14.7649 83.7301 14.605C83.7301 14.4511 83.7177 14.3333 83.7182 14.1793C83.7186 14.0935 83.7067 14.0505 83.706 13.9789C83.6958 13.0649 83.4477 11.6218 83.1964 10.7745C83.163 10.6615 83.1366 10.5505 83.0987 10.4345L82.8859 9.78406C82.7626 9.41043 82.6042 9.05478 82.4494 8.69481C82.3596 8.4859 82.2018 8.13312 82.093 7.95133L81.5444 6.98602L81.1992 6.45613C80.9114 6.02449 80.5897 5.61907 80.2567 5.22246L80.1534 5.10103C80.1327 5.07427 80.1236 5.06888 80.1022 5.04589C79.9784 4.9135 79.8653 4.77321 79.7358 4.6437C79.6919 4.59987 79.6745 4.57958 79.6346 4.5318L79.0787 3.98771C79.0526 3.9658 79.046 3.96526 79.0198 3.94011L78.9082 3.8388C78.8806 3.81545 78.875 3.80288 78.8455 3.7833C78.8234 3.75007 78.8349 3.76713 78.8035 3.74252L78.0259 3.1009C77.9569 3.04449 77.8856 2.99528 77.8166 2.94337C77.3683 2.60603 76.4989 2.04577 75.9756 1.78011C75.7795 1.6806 75.4158 1.48498 75.2162 1.40415L74.6992 1.17585C74.1074 0.939819 73.6592 0.770611 73.0239 0.592243C72.434 0.426628 71.4882 0.213232 70.8491 0.141202C70.739 0.128808 70.6239 0.104738 70.5105 0.104738C70.4437 0.0772553 69.4321 0.0116919 69.2776 0.00971599C68.5542 0.000734695 67.7817 0.0102549 67.0536 0.0102549C65.8683 0.0102549 64.6829 0.0102549 63.4976 0.0102549H56.0203H48.2834V47.9942H56.0198H61.2936H69.0642L71.6039 47.9792C71.6743 47.9695 71.7505 47.9766 71.8313 47.97L72.4934 47.9226C72.5495 47.9183 72.6493 47.901 72.7048 47.8998H72.7047Z" fill="white"/>
<path fill-rule="evenodd" clip-rule="evenodd" d="M93.3334 13.9905V32.7842C93.3334 33.1395 93.522 33.4652 93.7031 33.6446C93.9188 33.8585 94.2316 34.0259 94.5635 34.0259H96.799C97.0569 34.0259 97.3249 33.9007 97.5139 33.7592L97.6432 33.6401C97.9288 33.3312 98.0172 33.0536 98.0172 32.6065V14.1676C98.0172 13.6553 97.8609 13.2459 97.4472 12.9634C97.2029 12.7965 96.9403 12.7363 96.6096 12.7363H94.7527C94.4229 12.7363 94.2059 12.7782 93.9521 12.9292C93.715 13.0704 93.5165 13.3072 93.4177 13.5658C93.3685 13.6948 93.3333 13.8416 93.3333 13.9901L93.3334 13.9905ZM128.816 20.5429V26.2437C128.816 26.5221 128.892 26.771 129.029 26.9772C129.05 27.009 129.067 27.0342 129.093 27.0667C129.11 27.0881 129.115 27.0913 129.131 27.1107C129.351 27.3715 129.693 27.5565 130.046 27.5565H132.269C132.746 27.5565 133.216 27.2063 133.388 26.7947C133.45 26.6467 133.5 26.4824 133.5 26.2792V20.4956C133.5 20.2953 133.448 20.0972 133.382 19.9632C133.296 19.7906 133.237 19.7069 133.106 19.5761C132.891 19.3604 132.579 19.2065 132.151 19.2065H130.188C129.4 19.2065 128.816 19.7396 128.816 20.543L128.816 20.5429ZM116.988 18.8869V27.8639C116.988 28.2828 117.131 28.5087 117.353 28.7766C117.417 28.8542 117.625 28.9964 117.726 29.0428C117.855 29.1028 118.059 29.1649 118.242 29.1649H120.395C120.615 29.1649 120.764 29.1105 120.917 29.0485C120.984 29.0214 121.065 28.9734 121.12 28.9319C121.152 28.9073 121.184 28.8867 121.214 28.8604C121.244 28.8337 121.268 28.8069 121.297 28.7776C121.42 28.6542 121.483 28.561 121.562 28.3923C121.63 28.247 121.672 28.0604 121.672 27.8522V18.9225C121.672 18.42 121.409 17.9669 120.967 17.7475C120.834 17.682 120.656 17.6096 120.466 17.6096H118.195C118.015 17.6096 117.832 17.6787 117.71 17.7396C117.274 17.9584 116.989 18.3895 116.989 18.8869H116.988ZM105.161 17.0773V29.6855C105.161 30.3813 105.743 30.9628 106.438 30.9628H108.567C108.945 30.9628 109.234 30.8092 109.481 30.5637C109.694 30.3513 109.845 30.0375 109.845 29.6145V17.172C109.845 16.7892 109.764 16.5879 109.578 16.3156C109.55 16.2751 109.529 16.262 109.502 16.2259C109.338 16.012 108.916 15.8121 108.615 15.8121H106.391C106.027 15.8121 105.716 16.0088 105.531 16.1934C105.341 16.3815 105.161 16.7039 105.161 17.0775L105.161 17.0773Z" fill="white"/>
<path fill-rule="evenodd" clip-rule="evenodd" d="M35.9943 13.9313V32.8316C35.9943 32.9981 36.0583 33.1851 36.1166 33.3007C36.2497 33.5653 36.4516 33.771 36.7196 33.9041C36.8314 33.9596 37.0403 34.0261 37.2007 34.0261H39.4361C39.6352 34.0261 39.7889 33.9672 39.9314 33.9064C39.993 33.8802 40.067 33.8305 40.1246 33.7922C40.4278 33.5905 40.6662 33.1711 40.6662 32.7843V13.9787C40.6662 13.8009 40.5961 13.5685 40.5324 13.4503C40.4388 13.277 40.3752 13.2091 40.2435 13.0767C39.9876 12.8194 39.6184 12.7368 39.247 12.7368H37.39C36.9027 12.7368 36.5697 12.8732 36.27 13.2254C36.1335 13.386 35.9943 13.7025 35.9943 13.9313ZM0.500244 20.4956V26.2556C0.500244 26.5903 0.634784 26.9375 0.8577 27.1636C1.04487 27.3533 1.36029 27.5567 1.73014 27.5567H3.95373C4.38429 27.5567 4.75612 27.293 4.95694 26.9986C5.09813 26.7916 5.18399 26.5463 5.18399 26.2675V20.5193C5.18399 20.1791 5.07334 19.9073 4.87827 19.6659C4.85222 19.6337 4.82114 19.6068 4.79061 19.5761C4.53285 19.316 4.2009 19.2064 3.81183 19.2064H1.87223C1.30335 19.2064 0.875662 19.4528 0.626341 19.9475C0.556108 20.0866 0.500244 20.2919 0.500244 20.4956ZM12.3277 18.9226V27.8523C12.3277 28.0533 12.3719 28.2457 12.4342 28.3846C12.4673 28.4582 12.5027 28.5231 12.5476 28.5904C12.6016 28.6716 12.6307 28.7054 12.6972 28.772L13.0742 29.0456C13.2312 29.1092 13.3855 29.1654 13.6048 29.1654H15.7575C16.0158 29.1654 16.277 29.0636 16.467 28.9288L16.642 28.7842C16.7348 28.6849 16.8426 28.5367 16.8963 28.4119C16.9574 28.27 17.0111 28.0857 17.0111 27.8879V18.8872C17.0111 18.7038 16.9613 18.5057 16.9046 18.3787C16.7154 17.9539 16.2552 17.6099 15.8045 17.6099H13.5574C13.274 17.6099 13.0656 17.7148 12.8572 17.8558C12.7577 17.9232 12.6916 17.9963 12.6149 18.0864C12.5889 18.1173 12.568 18.1473 12.5451 18.182C12.494 18.2585 12.4714 18.3045 12.4337 18.39C12.3694 18.5359 12.3275 18.7123 12.3275 18.9226H12.3277ZM24.155 17.1603V29.5909C24.155 30.1603 24.4009 30.5873 24.8961 30.8368C25.0352 30.9071 25.2283 30.9629 25.4323 30.9629H27.5612C27.7646 30.9629 27.9286 30.9133 28.0768 30.8517C28.5106 30.6708 28.8386 30.1853 28.8386 29.7093V17.0777C28.8386 16.5569 28.53 16.1497 28.1093 15.9383C27.974 15.8704 27.8045 15.8122 27.6087 15.8122H25.3851C25.1289 15.8122 24.8636 15.9266 24.6786 16.0637C24.6384 16.0935 24.6249 16.1095 24.5892 16.1396C24.5062 16.2095 24.4232 16.304 24.3641 16.3994C24.2202 16.632 24.155 16.8533 24.155 17.1603Z" fill="white"/>
<path fill-rule="evenodd" clip-rule="evenodd" d="M59.2352 24.2686H54.7288V42.2346H59.2345H65.9574H68.6616C68.9558 42.2346 70.9105 42.255 71.1739 42.2159C71.245 42.2053 71.3222 42.2038 71.3927 42.1981C72.1514 42.135 73.2417 41.8284 73.913 41.4895L74.8081 40.9926C74.8727 40.9777 75.2155 40.7282 75.2754 40.6874C75.4772 40.5498 75.6325 40.4171 75.8154 40.2694C75.8551 40.2375 75.8774 40.2152 75.9185 40.1834L76.7543 39.3751C76.775 39.3516 76.7751 39.3456 76.7958 39.3221C76.8326 39.2804 76.8547 39.2625 76.8915 39.2168L77.24 38.7965C77.4633 38.5217 77.6855 38.1881 77.8773 37.8844C77.9283 37.8037 77.9704 37.7281 78.0176 37.6462C78.1222 37.4646 78.3436 37.0696 78.4175 36.8869L78.6506 36.3513C79.0102 35.4524 79.2416 34.499 79.3174 33.529C79.3262 33.4165 79.3185 33.264 79.3348 33.1561C79.3522 33.0408 79.3416 32.9059 79.3416 32.7844C79.3416 32.6447 79.3287 32.5326 79.3298 32.406C79.3309 32.282 79.3098 32.1712 79.3061 32.0512L79.2671 31.6999C79.2382 31.4804 79.1963 31.2535 79.1532 31.0449C79.0524 30.5571 78.8895 30.0284 78.6979 29.5724L78.5175 29.1732C78.4938 29.1262 78.4823 29.0901 78.4586 29.0428L78.3246 28.7865C78.2809 28.7026 78.2269 28.6205 78.1825 28.5383C78.1372 28.4544 78.0869 28.3793 78.0356 28.2949C77.9867 28.2148 77.9361 28.1449 77.8845 28.0675C77.8299 27.9856 77.7782 27.918 77.7236 27.8381C77.6312 27.7025 77.4557 27.4916 77.3446 27.3538C77.3279 27.3332 77.3167 27.3256 77.2991 27.3048L77.2109 27.2036C77.1757 27.1596 77.1603 27.1444 77.1207 27.1045C77.0834 27.0666 77.0667 27.0375 77.0264 26.9976C76.806 26.7797 76.6656 26.6351 76.4348 26.4302L76.1177 26.1676C76.0748 26.1352 76.0453 26.1103 76.0044 26.0797C75.7838 25.9146 75.5553 25.7467 75.3194 25.6057L74.8233 25.3177C74.6899 25.2308 74.1055 24.9727 73.9633 24.9157C73.2216 24.619 72.1999 24.3444 71.3817 24.3039C71.2966 24.2996 71.1728 24.2811 71.0862 24.2801C71.0363 24.2793 70.9811 24.2831 70.9319 24.2806C70.8768 24.2777 70.859 24.2687 70.7898 24.2687H67.6047H64.9083H59.2349L59.2352 24.2686ZM67.6042 29.2126C68.1459 29.2126 68.6875 29.2126 69.2292 29.2126C69.4899 29.2126 69.7897 29.1987 70.0455 29.2124C70.1665 29.2189 70.3075 29.235 70.4239 29.248L70.7904 29.3071C70.8078 29.3266 70.9337 29.3462 70.9666 29.3557C71.0314 29.3748 71.0905 29.3935 71.1557 29.415C71.4059 29.498 71.596 29.5882 71.8189 29.7216C72.3222 30.0231 72.7115 30.4364 73.0193 30.946C73.2685 31.3584 73.4605 31.8974 73.5379 32.367C73.6037 32.7656 73.6055 32.8786 73.6055 33.2692C73.6055 34.178 73.2897 35.1519 72.7449 35.8149C72.7249 35.839 72.7127 35.8566 72.6917 35.8801L72.396 36.1878C71.9166 36.6715 71.2288 36.9322 70.5676 37.0441C70.1742 37.1107 69.127 37.0895 68.6618 37.0895H65.7687H60.1459V29.2126H64.7081H67.6043H67.6042Z" fill="white"/>
<path fill-rule="evenodd" clip-rule="evenodd" d="M57.2834 23.6654H59.9318H62.8541H65.8474C66.1652 23.6654 68.7112 23.6813 68.8894 23.6568C68.9878 23.6434 69.092 23.6638 69.1904 23.6504C69.2682 23.6398 69.3884 23.634 69.4773 23.6297C69.6311 23.6222 70.4775 23.5059 70.5351 23.4643C70.7711 23.46 71.7532 23.1212 71.9646 23.0299L72.596 22.7389C72.6897 22.6921 73.112 22.467 73.1918 22.3998C73.5015 22.2313 74.2207 21.6854 74.4481 21.4568C74.5496 21.3547 74.8316 21.1 74.9146 21.0007L75.1756 20.7058C75.237 20.6366 75.2842 20.577 75.3423 20.5056C75.4545 20.3677 75.5648 20.2319 75.6656 20.0839C76.1235 19.4119 76.3995 18.937 76.7074 18.1689C77.4579 16.2967 77.5594 14.1352 76.9803 12.1766C76.665 11.11 76.1439 10.0965 75.491 9.23071C75.3017 8.97978 75.0364 8.66148 74.8084 8.43479L74.442 8.068C74.2404 7.86574 73.8562 7.56522 73.634 7.39763L73.1916 7.09514C72.9085 6.90959 72.6109 6.74703 72.3082 6.59434C72.2586 6.56938 72.2195 6.55644 72.1701 6.5313C72.0835 6.48729 71.9863 6.44615 71.9003 6.41077C71.5974 6.28575 71.3362 6.18749 71.0108 6.09373C69.9625 5.79196 69.2758 5.75854 68.1551 5.75854H64.7896H60.1906H57.2834H54.7406H54.7288V23.6653H57.2834V23.6654ZM60.1914 18.5797H60.1457V10.9745H60.1915H65.144H67.7035C67.7901 10.974 67.8267 10.9867 67.904 10.9867C68.2842 10.9873 68.2118 11.0103 68.5091 11.0336C68.5901 11.0408 68.6943 11.0672 68.775 11.0855C68.8782 11.1091 68.9411 11.1281 69.0354 11.1561C69.3893 11.2612 69.8349 11.4818 70.1132 11.7104C70.1464 11.7378 70.1707 11.7563 70.2055 11.7836C70.3788 11.9197 70.4771 12.0444 70.6156 12.1895C70.6795 12.2567 70.7708 12.3889 70.8306 12.4712C71.1088 12.8543 71.3691 13.485 71.4508 13.9798C71.5593 14.6373 71.5613 15.1027 71.42 15.7671C71.3436 16.126 71.2157 16.4391 71.0702 16.7303L70.9553 16.9345C70.8166 17.1644 70.7537 17.2233 70.6059 17.4132C70.5768 17.4506 70.5497 17.4691 70.5299 17.5097C70.5098 17.5156 70.5301 17.5048 70.5094 17.5194C70.4665 17.5492 70.4956 17.5539 70.3979 17.6313L70.1593 17.8422C70.0905 17.8977 70.0298 17.9426 69.9549 17.9925C69.6961 18.1648 69.5319 18.2395 69.2321 18.3579C69.0584 18.4265 68.8666 18.4721 68.664 18.5113C68.1953 18.602 67.7809 18.5792 67.3008 18.5792C66.8163 18.5792 66.3319 18.5792 65.8476 18.5792H62.8536H60.1908L60.1914 18.5797Z" fill="white"/>
</svg>
