<svg width="25" height="24" viewBox="0 0 25 24" fill="none" xmlns="http://www.w3.org/2000/svg">
<path d="M17.4669 4.99414H7.46692C4.46692 4.99414 2.46692 6.99414 2.46692 9.99414V16.9941C2.46692 19.9941 4.46692 21.9941 7.46692 21.9941H17.4669C20.4669 21.9941 22.4669 19.9941 22.4669 16.9941V9.99414C22.4669 6.99414 20.4669 4.99414 17.4669 4.99414Z" stroke="#6E737F" stroke-width="1.5" stroke-linecap="round" stroke-linejoin="round"/>
<path d="M7.46692 1.99414V4.99414" stroke="#6E737F" stroke-width="1.5" stroke-linecap="round" stroke-linejoin="round"/>
<path d="M8.96692 15.9941C10.3476 15.9941 11.4669 14.8749 11.4669 13.4941C11.4669 12.1134 10.3476 10.9941 8.96692 10.9941C7.58621 10.9941 6.46692 12.1134 6.46692 13.4941C6.46692 14.8749 7.58621 15.9941 8.96692 15.9941Z" stroke="#6E737F" stroke-width="1.5" stroke-linecap="round" stroke-linejoin="round"/>
<path d="M14.9669 10.9941H18.9669" stroke="#6E737F" stroke-width="1.5" stroke-linecap="round" stroke-linejoin="round"/>
<path d="M14.9669 14.9941H15.4669" stroke="#6E737F" stroke-width="1.5" stroke-linecap="round" stroke-linejoin="round"/>
<path d="M18.4669 14.9941H18.9669" stroke="#6E737F" stroke-width="1.5" stroke-linecap="round" stroke-linejoin="round"/>
</svg>
