<svg width="25" height="24" viewBox="0 0 25 24" fill="none" xmlns="http://www.w3.org/2000/svg">
<path d="M7.2269 21.9941H17.7069C20.4669 21.9941 21.5669 20.3041 21.6969 18.2441L22.2169 9.98414C22.3569 7.82414 20.6369 5.99414 18.4669 5.99414C17.8569 5.99414 17.2969 5.64414 17.0169 5.10414L16.2969 3.65414C15.8369 2.74414 14.6369 1.99414 13.6169 1.99414H11.3269C10.2969 1.99414 9.0969 2.74414 8.6369 3.65414L7.9169 5.10414C7.6369 5.64414 7.0769 5.99414 6.4669 5.99414C4.2969 5.99414 2.5769 7.82414 2.7169 9.98414L3.2369 18.2441C3.3569 20.3041 4.4669 21.9941 7.2269 21.9941Z" stroke="#6E737F" stroke-width="1.5" stroke-linecap="round" stroke-linejoin="round"/>
<path d="M10.9669 7.99414H13.9669" stroke="#6E737F" stroke-width="1.5" stroke-linecap="round" stroke-linejoin="round"/>
<path d="M12.4669 17.9941C14.2569 17.9941 15.7169 16.5341 15.7169 14.7441C15.7169 12.9541 14.2569 11.4941 12.4669 11.4941C10.6769 11.4941 9.21692 12.9541 9.21692 14.7441C9.21692 16.5341 10.6769 17.9941 12.4669 17.9941Z" stroke="#6E737F" stroke-width="1.5" stroke-linecap="round" stroke-linejoin="round"/>
</svg>
