<svg width="25" height="25" viewBox="0 0 25 25" fill="none" xmlns="http://www.w3.org/2000/svg">
<path d="M18.2669 2.59414L8.33689 5.08414C6.88689 5.44414 5.41689 6.91414 5.05689 8.36414L2.56689 18.2941C1.81689 21.2941 3.65689 23.1441 6.66689 22.3941L16.5969 19.9141C18.0369 19.5541 19.5169 18.0741 19.8769 16.6341L22.3669 6.69414C23.1169 3.69414 21.2669 1.84414 18.2669 2.59414Z" stroke="white" stroke-width="1.5" stroke-linecap="round" stroke-linejoin="round"/>
<path d="M12.4669 15.9941C14.3999 15.9941 15.9669 14.4271 15.9669 12.4941C15.9669 10.5611 14.3999 8.99414 12.4669 8.99414C10.5339 8.99414 8.96692 10.5611 8.96692 12.4941C8.96692 14.4271 10.5339 15.9941 12.4669 15.9941Z" stroke="white" stroke-width="1.5" stroke-linecap="round" stroke-linejoin="round"/>
</svg>
