<svg width="25" height="24" viewBox="0 0 25 24" fill="none" xmlns="http://www.w3.org/2000/svg">
<path d="M22.4669 12.9941V16.9941C22.4669 20.4941 20.4669 21.9941 17.4669 21.9941H7.46692C4.46692 21.9941 2.46692 20.4941 2.46692 16.9941V12.9941C2.46692 10.3441 3.61692 8.84417 5.46692 8.27417C6.06692 8.08417 6.73692 7.99414 7.46692 7.99414H17.4669C18.1969 7.99414 18.8669 8.08417 19.4669 8.27417C21.3169 8.84417 22.4669 10.3441 22.4669 12.9941Z" stroke="#6E737F" stroke-width="1.5" stroke-miterlimit="10" stroke-linecap="round" stroke-linejoin="round"/>
<path d="M19.4669 6.99414V8.27417C18.8669 8.08417 18.1969 7.99414 17.4669 7.99414H7.46692C6.73692 7.99414 6.06692 8.08417 5.46692 8.27417V6.99414C5.46692 5.89414 6.36692 4.99414 7.46692 4.99414H17.4669C18.5669 4.99414 19.4669 5.89414 19.4669 6.99414Z" stroke="#6E737F" stroke-width="1.5" stroke-miterlimit="10" stroke-linecap="round" stroke-linejoin="round"/>
<path d="M16.4669 3.50415V4.99414H8.46692V3.50415C8.46692 2.67415 9.14693 1.99414 9.97693 1.99414H14.9569C15.7869 1.99414 16.4669 2.67415 16.4669 3.50415Z" stroke="#6E737F" stroke-width="1.5" stroke-miterlimit="10" stroke-linecap="round" stroke-linejoin="round"/>
<path d="M9.53693 19.4442C10.2659 19.4442 10.8569 18.8532 10.8569 18.1242C10.8569 17.3952 10.2659 16.8042 9.53693 16.8042C8.80791 16.8042 8.21692 17.3952 8.21692 18.1242C8.21692 18.8532 8.80791 19.4442 9.53693 19.4442Z" stroke="#6E737F" stroke-width="1.5" stroke-linecap="round" stroke-linejoin="round"/>
<path d="M15.7169 17.2442V12.0743C15.7169 10.9743 15.0269 10.8143 14.3269 11.0143L11.6769 11.7342C11.1969 11.8642 10.8669 12.2442 10.8669 12.7942V13.7142V14.3343V18.1242" stroke="#6E737F" stroke-width="1.5" stroke-linecap="round" stroke-linejoin="round"/>
<path d="M14.3969 18.5643C15.1259 18.5643 15.7169 17.9733 15.7169 17.2443C15.7169 16.5153 15.1259 15.9243 14.3969 15.9243C13.6679 15.9243 13.0769 16.5153 13.0769 17.2443C13.0769 17.9733 13.6679 18.5643 14.3969 18.5643Z" stroke="#6E737F" stroke-width="1.5" stroke-linecap="round" stroke-linejoin="round"/>
<path d="M10.8669 14.3444L15.7169 13.0244" stroke="#6E737F" stroke-width="1.5" stroke-linecap="round" stroke-linejoin="round"/>
</svg>
