<svg width="25" height="24" viewBox="0 0 25 24" fill="none" xmlns="http://www.w3.org/2000/svg">
<path d="M19.4669 8.99414C19.4669 10.4441 19.0369 11.7742 18.2969 12.8842C17.2169 14.4842 15.5069 15.6141 13.5169 15.9041C13.1769 15.9641 12.8269 15.9941 12.4669 15.9941C12.1069 15.9941 11.7569 15.9641 11.4169 15.9041C9.42692 15.6141 7.71692 14.4842 6.63692 12.8842C5.89692 11.7742 5.46692 10.4441 5.46692 8.99414C5.46692 5.12414 8.59692 1.99414 12.4669 1.99414C16.3369 1.99414 19.4669 5.12414 19.4669 8.99414Z" stroke="#6E737F" stroke-width="1.5" stroke-linecap="round" stroke-linejoin="round"/>
<path d="M21.7169 18.4641L20.0669 18.854C19.6969 18.944 19.4069 19.2241 19.3269 19.5941L18.9769 21.0641C18.7869 21.8641 17.7669 22.1041 17.2369 21.4741L12.4669 15.994L7.69694 21.484C7.16694 22.114 6.14694 21.874 5.95694 21.074L5.60694 19.604C5.51694 19.234 5.22694 18.944 4.86694 18.864L3.21694 18.4741C2.45694 18.2941 2.18694 17.344 2.73694 16.794L6.63694 12.894C7.71694 14.494 9.42694 15.6241 11.4169 15.9141C11.7569 15.9741 12.1069 16.0041 12.4669 16.0041C12.8269 16.0041 13.1769 15.9741 13.5169 15.9141C15.5069 15.6241 17.2169 14.494 18.2969 12.894L22.1969 16.794C22.7469 17.334 22.4769 18.2841 21.7169 18.4641Z" stroke="#6E737F" stroke-width="1.5" stroke-linecap="round" stroke-linejoin="round"/>
<path d="M13.0469 5.97414L13.6369 7.15413C13.7169 7.31413 13.9269 7.47414 14.1169 7.50414L15.1869 7.68413C15.8669 7.79413 16.0269 8.29414 15.5369 8.78414L14.7069 9.61412C14.5669 9.75412 14.4869 10.0241 14.5369 10.2241L14.7769 11.2541C14.9669 12.0641 14.5369 12.3841 13.8169 11.9541L12.8169 11.3641C12.6369 11.2541 12.3369 11.2541 12.1569 11.3641L11.1569 11.9541C10.4369 12.3741 10.0069 12.0641 10.1969 11.2541L10.4369 10.2241C10.4769 10.0341 10.4069 9.75412 10.2669 9.61412L9.43689 8.78414C8.94689 8.29414 9.10689 7.80413 9.78689 7.68413L10.8569 7.50414C11.0369 7.47414 11.2469 7.31413 11.3269 7.15413L11.9169 5.97414C12.2069 5.33414 12.7269 5.33414 13.0469 5.97414Z" stroke="#6E737F" stroke-width="1.5" stroke-linecap="round" stroke-linejoin="round"/>
</svg>
