<svg width="134" height="48" viewBox="0 0 134 48" fill="none" xmlns="http://www.w3.org/2000/svg">
<path fill-rule="evenodd" clip-rule="evenodd" d="M56.4871 42.9204L54.6283 42.9207C54.4668 42.9229 54.5103 42.9441 54.5103 42.4118V5.15528H56.4866H63.811C64.1307 5.15528 69.4403 5.14666 69.5278 5.15851C69.5921 5.16731 69.6803 5.16049 69.7525 5.17037C69.8829 5.18815 70.035 5.18941 70.1749 5.20917L70.7729 5.29718C70.8361 5.3076 70.9141 5.33149 70.9773 5.33257C70.9973 5.34406 71.1428 5.37191 71.176 5.37891L71.7648 5.53519C72.0192 5.61656 72.2635 5.69649 72.5013 5.79205C73.0728 6.02179 73.9137 6.45792 74.436 6.84969C74.4865 6.88759 74.5302 6.91741 74.5795 6.95459L75.3945 7.6298C75.5185 7.75518 75.6541 7.86637 75.7674 8.00199L76.0155 8.26245C76.2585 8.51392 76.6864 9.09357 76.8804 9.38457C76.9499 9.48893 77.0083 9.58 77.0729 9.68867C77.1369 9.79591 77.1971 9.89075 77.2579 10.0005C77.4047 10.2651 77.4706 10.4167 77.5971 10.6666C77.7914 11.0502 78.0223 11.724 78.1345 12.1163C78.7271 14.1908 78.5611 16.1827 77.8405 18.0774L77.6632 18.5151C77.5991 18.6685 77.3657 19.1654 77.2993 19.2748L77.0332 19.7538C76.824 20.1036 76.6781 20.3299 76.4363 20.659C76.3641 20.7572 76.3 20.8477 76.2226 20.9419L75.9445 21.2789C75.9145 21.3097 75.9102 21.3159 75.8842 21.3484C75.8642 21.3732 75.8479 21.3852 75.826 21.4085L75.644 21.6051C75.5364 21.7401 75.4353 21.8145 75.3351 21.9111C75.3103 21.935 75.2945 21.9521 75.2702 21.9765L75.0697 22.1545C75.0399 22.1797 75.034 22.1888 75.0002 22.2151L74.7267 22.4382C74.6756 22.4762 74.6356 22.5062 74.5846 22.5445C74.533 22.5833 74.4896 22.612 74.4393 22.6476C74.3401 22.718 74.2465 22.7782 74.1413 22.8463L73.8284 23.03C73.7145 23.0873 73.6207 23.1484 73.5 23.1983C73.2835 23.2876 73.2068 23.33 72.9712 23.4148L72.3931 23.5937C72.3931 23.977 72.3112 23.8252 72.8122 23.8962C73.4078 23.9804 73.3895 23.956 74.0443 24.1187L74.6047 24.2915C75.2222 24.5376 75.4723 24.6179 76.0927 24.9915C76.2461 25.0839 76.3939 25.1755 76.5376 25.28C76.6104 25.333 76.6769 25.3752 76.7455 25.427C76.7801 25.453 76.8089 25.4746 76.8468 25.5029C76.8879 25.5338 76.9127 25.5554 76.9531 25.5859C77.1168 25.709 77.2308 25.8239 77.3535 25.9188C77.467 26.0066 77.7983 26.3439 77.9075 26.453C77.9729 26.5185 78.021 26.5757 78.0851 26.6419C78.118 26.6761 78.1324 26.7003 78.1679 26.7366L78.2504 26.8316C78.2698 26.8534 78.2683 26.8561 78.2868 26.878L78.416 27.0326C78.4446 27.0675 78.4681 27.0962 78.4945 27.1316C78.5236 27.1706 78.5486 27.1995 78.5773 27.2381C78.6307 27.3094 78.6822 27.3779 78.7327 27.4494C78.9326 27.7328 79.1307 28.0353 79.3005 28.3477L79.6622 29.0628L79.973 29.84L80.1451 30.3895C80.2586 30.8468 80.3269 31.0967 80.3969 31.5806C80.431 31.8162 80.4407 32.0618 80.4664 32.2324C80.4754 32.2921 80.4671 32.3452 80.472 32.4042C80.5302 33.1094 80.4181 34.2345 80.2658 34.8957C80.1925 35.2142 80.1386 35.445 80.0443 35.7506C79.9464 36.0669 79.7943 36.5061 79.6594 36.8086L79.3129 37.5616C79.2805 37.5846 79.269 37.6241 79.2493 37.6641L79.0591 38.006C78.7711 38.4928 78.349 39.1231 77.9729 39.5455C77.94 39.5824 77.9253 39.6041 77.89 39.6402L77.7307 39.8238C77.6668 39.8874 77.6228 39.9434 77.559 40.007L77.027 40.5276C76.7345 40.8173 75.9609 41.3863 75.6334 41.5823L74.7234 42.0797C74.2677 42.2823 73.96 42.4264 73.4528 42.5713C73.3552 42.5992 73.2688 42.6267 73.1716 42.6473C72.8593 42.7276 72.278 42.8483 71.9317 42.8717L71.4713 42.908C70.8349 42.9159 70.1834 42.9193 69.5312 42.9193H62.0562H56.4871V42.9204ZM73.1716 47.8998C73.4393 47.8998 74.6277 47.7 74.9156 47.6425C75.6392 47.4979 76.2021 47.337 76.8894 47.1087C77.016 47.0667 77.1389 47.0221 77.2628 46.9736C77.5006 46.8806 77.9479 46.7083 78.1494 46.6065C78.2082 46.5768 78.2631 46.5554 78.3188 46.5276C78.4313 46.4712 78.5495 46.4178 78.6619 46.362C78.7205 46.3327 78.7625 46.3054 78.8234 46.2752L79.3114 46.007C79.6809 45.8197 80.3384 45.35 80.6471 45.1183C80.9092 44.9216 81.1632 44.7128 81.4086 44.496C81.623 44.3065 82.2471 43.703 82.3891 43.525C82.4148 43.4928 82.4188 43.4856 82.4495 43.4553C82.6209 43.2868 83 42.8007 83.1425 42.6109L83.8208 41.6213C83.8578 41.564 83.8905 41.509 83.9242 41.4528C83.9598 41.3934 83.9973 41.3339 84.0307 41.2755L84.4216 40.5547C84.871 39.6558 85.2373 38.7261 85.5098 37.7516C85.6326 37.3121 85.7397 36.8564 85.8301 36.4042C85.942 35.8449 86.0196 35.2803 86.0794 34.714C86.0876 34.636 86.0928 34.5433 86.1043 34.4549C86.1652 33.9849 86.1816 33.0569 86.1839 32.5946L86.1516 31.929C86.1453 31.8829 86.1512 31.8398 86.1451 31.7936C86.1027 31.4802 86.0909 31.154 86.0302 30.7969C86.0028 30.6366 85.9791 30.4775 85.9484 30.3227C85.9172 30.1649 85.8827 30.0214 85.8498 29.8655C85.8193 29.7202 85.772 29.5686 85.7343 29.4249C85.6044 28.9295 85.4146 28.4614 85.2242 27.9954C85.2103 27.9617 85.1935 27.9322 85.1786 27.899L84.755 27.0689C84.455 26.5697 84.3181 26.3707 83.9756 25.9087C83.8193 25.698 83.6386 25.5015 83.4664 25.3061L83.0464 24.8863C82.9974 24.839 82.9598 24.797 82.9108 24.7498L82.6918 24.5547C82.6625 24.5274 82.6458 24.5193 82.6149 24.4897C82.2108 24.1047 81.1815 23.4317 80.7197 23.1915C80.6886 23.1753 80.6559 23.1615 80.6254 23.1439C80.5765 23.1155 80.4953 23.0638 80.4357 23.0498C80.4486 23.0009 80.5023 22.974 80.5422 22.9434C80.5683 22.9233 80.5735 22.917 80.5983 22.893L81.5172 21.955C81.7378 21.673 81.8596 21.5404 82.087 21.2119L82.2598 20.9588C82.5582 20.5115 82.8059 20.0371 83.046 19.557C83.2386 19.1722 83.4164 18.7282 83.5511 18.3235C83.6255 18.0998 83.6975 17.8906 83.7622 17.6592C83.8935 17.189 84.011 16.7187 84.0783 16.2249C84.1039 16.0383 84.1382 15.8518 84.1498 15.6578C84.1534 15.6003 84.1595 15.5127 84.1685 15.4518C84.1868 15.3289 84.1971 14.7649 84.1971 14.605C84.1971 14.4511 84.1847 14.3333 84.1852 14.1793C84.1856 14.0935 84.1737 14.0505 84.173 13.9789C84.1628 13.0649 83.9147 11.6218 83.6634 10.7745C83.63 10.6615 83.6036 10.5505 83.5657 10.4345L83.3528 9.78406C83.2296 9.41043 83.0712 9.05478 82.9163 8.69481C82.8265 8.4859 82.6688 8.13312 82.56 7.95133L82.0114 6.98602L81.6661 6.45613C81.3784 6.02449 81.0567 5.61907 80.7236 5.22246L80.6204 5.10103C80.5997 5.07427 80.5905 5.06888 80.5692 5.04589C80.4454 4.9135 80.3322 4.77321 80.2027 4.6437C80.1589 4.59987 80.1415 4.57958 80.1016 4.5318L79.5457 3.98771C79.5196 3.9658 79.513 3.96526 79.4867 3.94011L79.3752 3.8388C79.3475 3.81545 79.342 3.80288 79.3125 3.7833C79.2904 3.75007 79.3019 3.76713 79.2705 3.74252L78.4929 3.1009C78.4239 3.04449 78.3526 2.99528 78.2836 2.94337C77.8353 2.60603 76.9659 2.04577 76.4426 1.78011C76.2465 1.6806 75.8827 1.48498 75.6832 1.40415L75.1662 1.17585C74.5743 0.939819 74.1262 0.770611 73.4908 0.592243C72.9009 0.426628 71.9552 0.213232 71.3161 0.141202C71.206 0.128808 71.0909 0.104738 70.9775 0.104738C70.9107 0.0772553 69.899 0.0116919 69.7446 0.00971599C69.0212 0.000734695 68.2486 0.0102549 67.5206 0.0102549C66.3353 0.0102549 65.1499 0.0102549 63.9646 0.0102549H56.4873H48.7504V47.9942H56.4867H61.7605H69.5312L72.0709 47.9792C72.1413 47.9695 72.2175 47.9766 72.2983 47.97L72.9604 47.9226C73.0164 47.9183 73.1163 47.901 73.1718 47.8998H73.1716Z" fill="white"/>
<path fill-rule="evenodd" clip-rule="evenodd" d="M93.8004 13.9905V32.7842C93.8004 33.1395 93.989 33.4652 94.1701 33.6446C94.3858 33.8585 94.6985 34.0259 95.0305 34.0259H97.2659C97.5239 34.0259 97.7919 33.9007 97.9808 33.7592L98.1102 33.6401C98.3958 33.3312 98.4842 33.0536 98.4842 32.6065V14.1676C98.4842 13.6553 98.3279 13.2459 97.9142 12.9634C97.6699 12.7965 97.4073 12.7363 97.0766 12.7363H95.2196C94.8898 12.7363 94.6729 12.7782 94.419 12.9292C94.1819 13.0704 93.9835 13.3072 93.8847 13.5658C93.8354 13.6948 93.8002 13.8416 93.8002 13.9901L93.8004 13.9905ZM129.283 20.5429V26.2437C129.283 26.5221 129.359 26.771 129.495 26.9772C129.517 27.009 129.534 27.0342 129.56 27.0667C129.576 27.0881 129.582 27.0913 129.598 27.1107C129.818 27.3715 130.16 27.5565 130.513 27.5565H132.736C133.213 27.5565 133.683 27.2063 133.855 26.7947C133.917 26.6467 133.967 26.4824 133.967 26.2792V20.4956C133.967 20.2953 133.915 20.0972 133.849 19.9632C133.763 19.7906 133.704 19.7069 133.573 19.5761C133.358 19.3604 133.046 19.2065 132.618 19.2065H130.655C129.867 19.2065 129.283 19.7396 129.283 20.543L129.283 20.5429ZM117.455 18.8869V27.8639C117.455 28.2828 117.598 28.5087 117.82 28.7766C117.884 28.8542 118.092 28.9964 118.193 29.0428C118.322 29.1028 118.526 29.1649 118.709 29.1649H120.862C121.082 29.1649 121.231 29.1105 121.384 29.0485C121.451 29.0214 121.532 28.9734 121.587 28.9319C121.619 28.9073 121.651 28.8867 121.681 28.8604C121.711 28.8337 121.735 28.8069 121.764 28.7776C121.887 28.6542 121.95 28.561 122.029 28.3923C122.097 28.247 122.139 28.0604 122.139 27.8522V18.9225C122.139 18.42 121.876 17.9669 121.434 17.7475C121.301 17.682 121.123 17.6096 120.933 17.6096H118.662C118.482 17.6096 118.299 17.6787 118.177 17.7396C117.741 17.9584 117.456 18.3895 117.456 18.8869H117.455ZM105.628 17.0773V29.6855C105.628 30.3813 106.21 30.9628 106.905 30.9628H109.034C109.412 30.9628 109.701 30.8092 109.948 30.5637C110.161 30.3513 110.312 30.0375 110.312 29.6145V17.172C110.312 16.7892 110.231 16.5879 110.045 16.3156C110.017 16.2751 109.996 16.262 109.969 16.2259C109.805 16.012 109.383 15.8121 109.082 15.8121H106.858C106.494 15.8121 106.183 16.0088 105.998 16.1934C105.808 16.3815 105.628 16.7039 105.628 17.0775L105.628 17.0773Z" fill="white"/>
<path fill-rule="evenodd" clip-rule="evenodd" d="M36.4612 13.9313V32.8316C36.4612 32.9981 36.5252 33.1851 36.5836 33.3007C36.7167 33.5653 36.9186 33.771 37.1866 33.9041C37.2983 33.9596 37.5072 34.0261 37.6676 34.0261H39.903C40.1021 34.0261 40.2558 33.9672 40.3983 33.9064C40.4599 33.8802 40.5339 33.8305 40.5915 33.7922C40.8948 33.5905 41.1331 33.1711 41.1331 32.7843V13.9787C41.1331 13.8009 41.0631 13.5685 40.9993 13.4503C40.9057 13.277 40.8421 13.2091 40.7105 13.0767C40.4545 12.8194 40.0854 12.7368 39.7139 12.7368H37.8569C37.3696 12.7368 37.0366 12.8732 36.737 13.2254C36.6004 13.386 36.4612 13.7025 36.4612 13.9313ZM0.967163 20.4956V26.2556C0.967163 26.5903 1.1017 26.9375 1.32462 27.1636C1.51179 27.3533 1.82721 27.5567 2.19706 27.5567H4.42065C4.85121 27.5567 5.22304 27.293 5.42386 26.9986C5.56505 26.7916 5.65091 26.5463 5.65091 26.2675V20.5193C5.65091 20.1791 5.54026 19.9073 5.34518 19.6659C5.31914 19.6337 5.28806 19.6068 5.25753 19.5761C4.99976 19.316 4.66782 19.2064 4.27875 19.2064H2.33915C1.77027 19.2064 1.34258 19.4528 1.09326 19.9475C1.02303 20.0866 0.967163 20.2919 0.967163 20.4956ZM12.7946 18.9226V27.8523C12.7946 28.0533 12.8388 28.2457 12.9011 28.3846C12.9342 28.4582 12.9696 28.5231 13.0145 28.5904C13.0686 28.6716 13.0977 28.7054 13.1641 28.772L13.5412 29.0456C13.6981 29.1092 13.8524 29.1654 14.0718 29.1654H16.2244C16.4827 29.1654 16.7439 29.0636 16.9339 28.9288L17.1089 28.7842C17.2017 28.6849 17.3095 28.5367 17.3632 28.4119C17.4243 28.27 17.478 28.0857 17.478 27.8879V18.8872C17.478 18.7038 17.4283 18.5057 17.3715 18.3787C17.1823 17.9539 16.7221 17.6099 16.2715 17.6099H14.0243C13.7409 17.6099 13.5325 17.7148 13.3242 17.8558C13.2247 17.9232 13.1586 17.9963 13.0819 18.0864C13.0558 18.1173 13.035 18.1473 13.012 18.182C12.961 18.2585 12.9383 18.3045 12.9006 18.39C12.8363 18.5359 12.7944 18.7123 12.7944 18.9226H12.7946ZM24.6219 17.1603V29.5909C24.6219 30.1603 24.8678 30.5873 25.3631 30.8368C25.5021 30.9071 25.6952 30.9629 25.8992 30.9629H28.0282C28.2315 30.9629 28.3955 30.9133 28.5437 30.8517C28.9775 30.6708 29.3055 30.1853 29.3055 29.7093V17.0777C29.3055 16.5569 28.9969 16.1497 28.5762 15.9383C28.4409 15.8704 28.2714 15.8122 28.0756 15.8122H25.852C25.5958 15.8122 25.3305 15.9266 25.1455 16.0637C25.1053 16.0935 25.0918 16.1095 25.0561 16.1396C24.9731 16.2095 24.8901 16.304 24.831 16.3994C24.6871 16.632 24.6219 16.8533 24.6219 17.1603Z" fill="white"/>
<path fill-rule="evenodd" clip-rule="evenodd" d="M59.7021 24.2686H55.1956V42.2346H59.7014H66.4242H69.1285C69.4227 42.2346 71.3774 42.255 71.6407 42.2159C71.7119 42.2053 71.7891 42.2038 71.8595 42.1981C72.6182 42.135 73.7086 41.8284 74.3798 41.4895L75.2749 40.9926C75.3396 40.9777 75.6823 40.7282 75.7423 40.6874C75.944 40.5498 76.0994 40.4171 76.2823 40.2694C76.322 40.2375 76.3442 40.2152 76.3854 40.1834L77.2212 39.3751C77.2418 39.3516 77.242 39.3456 77.2627 39.3221C77.2995 39.2804 77.3216 39.2625 77.3584 39.2168L77.7069 38.7965C77.9301 38.5217 78.1523 38.1881 78.3442 37.8844C78.3952 37.8037 78.4372 37.7281 78.4845 37.6462C78.589 37.4646 78.8105 37.0696 78.8843 36.8869L79.1175 36.3513C79.4771 35.4524 79.7084 34.499 79.7842 33.529C79.793 33.4165 79.7853 33.264 79.8017 33.1561C79.8191 33.0408 79.8085 32.9059 79.8085 32.7844C79.8085 32.6447 79.7956 32.5326 79.7966 32.406C79.7977 32.282 79.7767 32.1712 79.7729 32.0512L79.7339 31.6999C79.705 31.4804 79.6632 31.2535 79.6201 31.0449C79.5193 30.5571 79.3564 30.0284 79.1647 29.5724L78.9844 29.1732C78.9607 29.1262 78.9492 29.0901 78.9255 29.0428L78.7915 28.7865C78.7478 28.7026 78.6937 28.6205 78.6494 28.5383C78.6041 28.4544 78.5538 28.3793 78.5024 28.2949C78.4536 28.2148 78.4029 28.1449 78.3514 28.0675C78.2968 27.9856 78.245 27.918 78.1904 27.8381C78.0981 27.7025 77.9226 27.4916 77.8114 27.3538C77.7947 27.3332 77.7836 27.3256 77.766 27.3048L77.6778 27.2036C77.6426 27.1596 77.6271 27.1444 77.5876 27.1045C77.5502 27.0666 77.5335 27.0375 77.4933 26.9976C77.2729 26.7797 77.1324 26.6351 76.9016 26.4302L76.5846 26.1676C76.5416 26.1352 76.5122 26.1103 76.4712 26.0797C76.2506 25.9146 76.0222 25.7467 75.7863 25.6057L75.2902 25.3177C75.1567 25.2308 74.5724 24.9727 74.4301 24.9157C73.6885 24.619 72.6667 24.3444 71.8486 24.3039C71.7634 24.2996 71.6396 24.2811 71.5531 24.2801C71.5031 24.2793 71.448 24.2831 71.3988 24.2806C71.3436 24.2777 71.3258 24.2687 71.2567 24.2687H68.0716H65.3752H59.7017L59.7021 24.2686ZM68.071 29.2126C68.6128 29.2126 69.1543 29.2126 69.6961 29.2126C69.9567 29.2126 70.2565 29.1987 70.5123 29.2124C70.6334 29.2189 70.7744 29.235 70.8908 29.248L71.2572 29.3071C71.2746 29.3266 71.4006 29.3462 71.4334 29.3557C71.4983 29.3748 71.5574 29.3935 71.6226 29.415C71.8728 29.498 72.0628 29.5882 72.2858 29.7216C72.7891 30.0231 73.1783 30.4364 73.4862 30.946C73.7353 31.3584 73.9274 31.8974 74.0048 32.367C74.0705 32.7656 74.0723 32.8786 74.0723 33.2692C74.0723 34.178 73.7565 35.1519 73.2117 35.8149C73.1918 35.839 73.1796 35.8566 73.1586 35.8801L72.8629 36.1878C72.3835 36.6715 71.6957 36.9322 71.0345 37.0441C70.6411 37.1107 69.5939 37.0895 69.1287 37.0895H66.2356H60.6128V29.2126H65.1749H68.0712H68.071Z" fill="white"/>
<path fill-rule="evenodd" clip-rule="evenodd" d="M57.7503 23.6654H60.3987H63.321H66.3143C66.632 23.6654 69.1781 23.6813 69.3562 23.6568C69.4547 23.6434 69.5589 23.6638 69.6573 23.6504C69.7351 23.6398 69.8552 23.634 69.9442 23.6297C70.0979 23.6222 70.9443 23.5059 71.002 23.4643C71.238 23.46 72.22 23.1212 72.4314 23.0299L73.0628 22.7389C73.1566 22.6921 73.5789 22.467 73.6586 22.3998C73.9683 22.2313 74.6875 21.6854 74.9149 21.4568C75.0164 21.3547 75.2984 21.1 75.3814 21.0007L75.6424 20.7058C75.7039 20.6366 75.7511 20.577 75.8091 20.5056C75.9214 20.3677 76.0317 20.2319 76.1324 20.0839C76.5903 19.4119 76.8664 18.937 77.1743 18.1689C77.9248 16.2967 78.0262 14.1352 77.4471 12.1766C77.1319 11.11 76.6108 10.0965 75.9579 9.23071C75.7685 8.97978 75.5032 8.66148 75.2753 8.43479L74.9088 8.068C74.7073 7.86574 74.3231 7.56522 74.1009 7.39763L73.6585 7.09514C73.3754 6.90959 73.0777 6.74703 72.7751 6.59434C72.7255 6.56938 72.6863 6.55644 72.6369 6.5313C72.5504 6.48729 72.4532 6.44615 72.3671 6.41077C72.0643 6.28575 71.8031 6.18749 71.4776 6.09373C70.4293 5.79196 69.7426 5.75854 68.6219 5.75854H65.2565H60.6575H57.7503H55.2075H55.1956V23.6653H57.7503V23.6654ZM60.6582 18.5797H60.6126V10.9745H60.6584H65.6109H68.1704C68.2569 10.974 68.2936 10.9867 68.3708 10.9867C68.7511 10.9873 68.6787 11.0103 68.976 11.0336C69.057 11.0408 69.1612 11.0672 69.2418 11.0855C69.3451 11.1091 69.408 11.1281 69.5023 11.1561C69.8561 11.2612 70.3018 11.4818 70.58 11.7104C70.6133 11.7378 70.6375 11.7563 70.6724 11.7836C70.8457 11.9197 70.944 12.0444 71.0824 12.1895C71.1464 12.2567 71.2376 12.3889 71.2975 12.4712C71.5757 12.8543 71.836 13.485 71.9177 13.9798C72.0262 14.6373 72.0282 15.1027 71.8868 15.7671C71.8105 16.126 71.6826 16.4391 71.5371 16.7303L71.4221 16.9345C71.2835 17.1644 71.2206 17.2233 71.0727 17.4132C71.0436 17.4506 71.0165 17.4691 70.9968 17.5097C70.9766 17.5156 70.9969 17.5048 70.9763 17.5194C70.9334 17.5492 70.9625 17.5539 70.8647 17.6313L70.6262 17.8422C70.5574 17.8977 70.4967 17.9426 70.4218 17.9925C70.1629 18.1648 69.9988 18.2395 69.699 18.3579C69.5253 18.4265 69.3334 18.4721 69.1308 18.5113C68.6622 18.602 68.2478 18.5792 67.7676 18.5792C67.2832 18.5792 66.7987 18.5792 66.3145 18.5792H63.3205H60.6577L60.6582 18.5797Z" fill="white"/>
</svg>
